<?xml version="1.0" encoding="utf-8" standalone="no"?>
<!DOCTYPE svg PUBLIC "-//W3C//DTD SVG 1.1//EN"
  "http://www.w3.org/Graphics/SVG/1.1/DTD/svg11.dtd">
<svg xmlns:xlink="http://www.w3.org/1999/xlink" width="504pt" height="360pt" viewBox="0 0 504 360" xmlns="http://www.w3.org/2000/svg" version="1.1">
 <metadata>
  <rdf:RDF xmlns:dc="http://purl.org/dc/elements/1.1/" xmlns:cc="http://creativecommons.org/ns#" xmlns:rdf="http://www.w3.org/1999/02/22-rdf-syntax-ns#">
   <cc:Work>
    <dc:type rdf:resource="http://purl.org/dc/dcmitype/StillImage"/>
    <dc:date>2023-10-20T12:08:35.873217</dc:date>
    <dc:format>image/svg+xml</dc:format>
    <dc:creator>
     <cc:Agent>
      <dc:title>Matplotlib v3.7.2, https://matplotlib.org/</dc:title>
     </cc:Agent>
    </dc:creator>
   </cc:Work>
  </rdf:RDF>
 </metadata>
 <defs>
  <style type="text/css">*{stroke-linejoin: round; stroke-linecap: butt}</style>
 </defs>
 <g id="figure_1">
  <g id="patch_1">
   <path d="M 0 360 
L 504 360 
L 504 0 
L 0 0 
z
" style="fill: #ffffff"/>
  </g>
  <g id="axes_1">
   <g id="patch_2">
    <path d="M 63 320.4 
L 453.6 320.4 
L 453.6 43.2 
L 63 43.2 
z
" style="fill: #ffffff"/>
   </g>
   <g id="matplotlib.axis_1">
    <g id="xtick_1">
     <g id="line2d_1">
      <defs>
       <path id="m29147a94bb" d="M 0 0 
L 0 -3.5 
" style="stroke: #000000; stroke-width: 0.8"/>
      </defs>
      <g>
       <use xlink:href="#m29147a94bb" x="111.825" y="320.4" style="stroke: #000000; stroke-width: 0.8"/>
      </g>
     </g>
     <g id="text_1">
      <text style="font: 14px 'Helvetica', sans-serif; text-anchor: middle" x="111.825" y="336.442813" transform="rotate(-0 111.825 336.442813)">1542</text>
     </g>
    </g>
    <g id="xtick_2">
     <g id="line2d_2">
      <g>
       <use xlink:href="#m29147a94bb" x="209.475" y="320.4" style="stroke: #000000; stroke-width: 0.8"/>
      </g>
     </g>
     <g id="text_2">
      <text style="font: 14px 'Helvetica', sans-serif; text-anchor: middle" x="209.475" y="336.442813" transform="rotate(-0 209.475 336.442813)">1543</text>
     </g>
    </g>
    <g id="xtick_3">
     <g id="line2d_3">
      <g>
       <use xlink:href="#m29147a94bb" x="307.125" y="320.4" style="stroke: #000000; stroke-width: 0.8"/>
      </g>
     </g>
     <g id="text_3">
      <text style="font: 14px 'Helvetica', sans-serif; text-anchor: middle" x="307.125" y="336.442813" transform="rotate(-0 307.125 336.442813)">1544</text>
     </g>
    </g>
    <g id="xtick_4">
     <g id="line2d_4">
      <g>
       <use xlink:href="#m29147a94bb" x="404.775" y="320.4" style="stroke: #000000; stroke-width: 0.8"/>
      </g>
     </g>
     <g id="text_4">
      <text style="font: 14px 'Helvetica', sans-serif; text-anchor: middle" x="404.775" y="336.442813" transform="rotate(-0 404.775 336.442813)">1545</text>
     </g>
    </g>
    <g id="xtick_5">
     <g id="line2d_5">
      <defs>
       <path id="m9d0768d374" d="M 0 0 
L 0 -2 
" style="stroke: #000000; stroke-width: 0.6"/>
      </defs>
      <g>
       <use xlink:href="#m9d0768d374" x="63" y="320.4" style="stroke: #000000; stroke-width: 0.6"/>
      </g>
     </g>
    </g>
    <g id="xtick_6">
     <g id="line2d_6">
      <g>
       <use xlink:href="#m9d0768d374" x="160.65" y="320.4" style="stroke: #000000; stroke-width: 0.6"/>
      </g>
     </g>
    </g>
    <g id="xtick_7">
     <g id="line2d_7">
      <g>
       <use xlink:href="#m9d0768d374" x="258.3" y="320.4" style="stroke: #000000; stroke-width: 0.6"/>
      </g>
     </g>
    </g>
    <g id="xtick_8">
     <g id="line2d_8">
      <g>
       <use xlink:href="#m9d0768d374" x="355.95" y="320.4" style="stroke: #000000; stroke-width: 0.6"/>
      </g>
     </g>
    </g>
    <g id="xtick_9">
     <g id="line2d_9">
      <g>
       <use xlink:href="#m9d0768d374" x="453.6" y="320.4" style="stroke: #000000; stroke-width: 0.6"/>
      </g>
     </g>
    </g>
    <g id="text_5">
     <text style="font: 14px 'Helvetica', sans-serif; text-anchor: middle" x="258.3" y="355.567813" transform="rotate(-0 258.3 355.567813)">Wavelength (nm)</text>
    </g>
   </g>
   <g id="matplotlib.axis_2">
    <g id="ytick_1">
     <g id="line2d_10">
      <defs>
       <path id="m79cf8fe1f9" d="M 0 0 
L 3.5 0 
" style="stroke: #000000; stroke-width: 0.8"/>
      </defs>
      <g>
       <use xlink:href="#m79cf8fe1f9" x="63" y="320.4" style="stroke: #000000; stroke-width: 0.8"/>
      </g>
     </g>
     <g id="text_6">
      <text style="font: 14px 'Helvetica', sans-serif; text-anchor: end" x="57" y="325.421406" transform="rotate(-0 57 325.421406)">−70</text>
     </g>
    </g>
    <g id="ytick_2">
     <g id="line2d_11">
      <g>
       <use xlink:href="#m79cf8fe1f9" x="63" y="251.1" style="stroke: #000000; stroke-width: 0.8"/>
      </g>
     </g>
     <g id="text_7">
      <text style="font: 14px 'Helvetica', sans-serif; text-anchor: end" x="57" y="256.121406" transform="rotate(-0 57 256.121406)">−50</text>
     </g>
    </g>
    <g id="ytick_3">
     <g id="line2d_12">
      <g>
       <use xlink:href="#m79cf8fe1f9" x="63" y="181.8" style="stroke: #000000; stroke-width: 0.8"/>
      </g>
     </g>
     <g id="text_8">
      <text style="font: 14px 'Helvetica', sans-serif; text-anchor: end" x="57" y="186.821406" transform="rotate(-0 57 186.821406)">−30</text>
     </g>
    </g>
    <g id="ytick_4">
     <g id="line2d_13">
      <g>
       <use xlink:href="#m79cf8fe1f9" x="63" y="112.5" style="stroke: #000000; stroke-width: 0.8"/>
      </g>
     </g>
     <g id="text_9">
      <text style="font: 14px 'Helvetica', sans-serif; text-anchor: end" x="57" y="117.521406" transform="rotate(-0 57 117.521406)">−10</text>
     </g>
    </g>
    <g id="ytick_5">
     <g id="line2d_14">
      <g>
       <use xlink:href="#m79cf8fe1f9" x="63" y="43.2" style="stroke: #000000; stroke-width: 0.8"/>
      </g>
     </g>
     <g id="text_10">
      <text style="font: 14px 'Helvetica', sans-serif; text-anchor: end" x="57" y="48.221406" transform="rotate(-0 57 48.221406)">10</text>
     </g>
    </g>
    <g id="ytick_6">
     <g id="line2d_15">
      <defs>
       <path id="m6a84307a55" d="M 0 0 
L 2 0 
" style="stroke: #000000; stroke-width: 0.6"/>
      </defs>
      <g>
       <use xlink:href="#m6a84307a55" x="63" y="285.75" style="stroke: #000000; stroke-width: 0.6"/>
      </g>
     </g>
    </g>
    <g id="ytick_7">
     <g id="line2d_16">
      <g>
       <use xlink:href="#m6a84307a55" x="63" y="216.45" style="stroke: #000000; stroke-width: 0.6"/>
      </g>
     </g>
    </g>
    <g id="ytick_8">
     <g id="line2d_17">
      <g>
       <use xlink:href="#m6a84307a55" x="63" y="147.15" style="stroke: #000000; stroke-width: 0.6"/>
      </g>
     </g>
    </g>
    <g id="ytick_9">
     <g id="line2d_18">
      <g>
       <use xlink:href="#m6a84307a55" x="63" y="77.85" style="stroke: #000000; stroke-width: 0.6"/>
      </g>
     </g>
    </g>
    <g id="text_11">
     <text style="font: 14px 'Helvetica', sans-serif; text-anchor: middle" x="24.334375" y="181.8" transform="rotate(-90 24.334375 181.8)">Power (dBm)</text>
    </g>
   </g>
   <g id="line2d_19">
    <path d="M -1 306.979663 
L -0.4725 300.3723 
L 0.504 325.97865 
L 1.4805 314.89065 
L 2.457 332.70075 
L 2.628695 361 
M 4.241261 361 
L 4.41 333.2898 
L 5.3865 313.50465 
L 6.363 297.70425 
L 7.3395 295.34805 
L 8.316 303.6987 
L 9.2925 303.2829 
L 10.269 299.2635 
L 10.579133 361 
M 11.911511 361 
L 12.222 299.15955 
L 13.1985 296.9073 
L 14.175 301.3425 
L 15.1515 299.4714 
L 16.128 313.8858 
L 17.1045 301.72365 
L 18.081 296.11035 
L 19.0575 306.2628 
L 20.034 299.8179 
L 20.342227 361 
M 21.703551 361 
L 21.987 306.7479 
L 22.9635 331.0029 
L 23.94 289.94265 
L 24.9165 296.24895 
L 25.893 315.51435 
L 26.8695 324.2115 
L 27.846 293.89275 
L 28.8225 310.4208 
L 29.799 297.4617 
L 30.115253 361 
M 31.446411 361 
L 31.752 300.5802 
L 32.7285 294.65505 
L 33.705 292.50675 
L 34.6815 291.60585 
L 35.658 338.17545 
L 36.6345 310.005 
L 37.611 295.20945 
L 38.5875 306.22815 
L 39.564 301.44645 
L 40.5405 313.6086 
L 41.517 291.294 
L 42.4935 307.3716 
L 43.47 288.76455 
L 44.4465 304.91145 
L 45.423 303.6294 
L 46.3995 316.8657 
L 47.376 309.5892 
L 48.3525 304.77285 
L 49.209495 361 
M 49.450143 361 
L 50.3055 305.6391 
L 51.282 296.59545 
L 52.2585 289.7001 
L 52.59988 361 
M 53.9369 361 
L 54.2115 309.1041 
L 55.188 294.30855 
L 56.1645 290.98215 
L 57.141 303.73335 
L 58.1175 295.8678 
L 59.094 299.43675 
L 60.0705 307.3023 
L 61.047 301.93155 
L 61.34786 361 
M 62.685384 361 
L 63 297.9468 
L 63.9765 305.67375 
L 64.953 302.1048 
L 65.9295 305.95095 
L 66.906 295.1748 
L 67.8825 291.95235 
L 68.859 292.4028 
L 69.8355 308.93085 
L 70.812 301.79295 
L 71.7885 296.52615 
L 72.765 320.01885 
L 74.718 296.80335 
L 75.6945 293.0265 
L 76.671 298.3626 
L 77.6475 311.28705 
L 78.624 295.1748 
L 79.6005 304.1145 
L 80.577 308.16855 
L 81.5535 298.1547 
L 82.53 294.8283 
L 83.5065 304.6689 
L 84.483 303.1443 
L 84.779559 361 
M 86.134774 361 
L 86.436 301.8276 
L 87.4125 293.6502 
L 89.3655 310.6287 
L 90.342 294.1353 
L 91.3185 304.01055 
L 92.295 296.17965 
L 93.2715 303.9759 
L 94.248 302.90175 
L 95.2245 298.18935 
L 96.201 309.1041 
L 97.1775 304.77285 
L 98.154 304.5303 
L 99.1305 308.30715 
L 100.107 302.07015 
L 101.0835 309.5199 
L 102.06 297.42705 
L 103.0365 291.5019 
L 104.013 272.7216 
L 104.9895 269.56845 
L 105.966 276.5331 
L 107.919 301.93155 
L 108.8955 296.9766 
L 109.872 309.5892 
L 110.8485 310.73265 
L 111.825 296.0064 
L 112.8015 292.92255 
L 113.778 304.3224 
L 114.7545 283.3938 
L 115.731 295.00155 
L 116.7075 288.2448 
L 118.6605 279.513 
L 119.637 287.7597 
L 120.6135 276.048 
L 121.59 277.8498 
L 122.5665 273.58785 
L 123.543 264.44025 
L 124.5195 259.65855 
L 125.496 252.45135 
L 126.4725 242.1603 
L 128.4255 226.0827 
L 129.402 211.1832 
L 130.3785 201.5505 
L 131.355 185.958 
L 132.3315 164.16315 
L 133.308 146.457 
L 134.2845 121.1625 
L 135.261 107.75295 
L 136.2375 106.57485 
L 137.214 116.5887 
L 138.1905 139.7349 
L 139.167 170.019 
L 140.1435 192.36825 
L 142.0965 222.4791 
L 143.073 233.87895 
L 144.0495 248.84775 
L 145.026 257.64885 
L 146.0025 263.60865 
L 146.979 270.95445 
L 147.9555 273.2067 
L 148.932 273.2067 
L 149.9085 276.8796 
L 150.885 278.3349 
L 151.8615 273.93435 
L 152.838 271.99395 
L 153.8145 268.73685 
L 154.791 266.38065 
L 155.7675 255.1887 
L 156.744 247.18455 
L 157.7205 240.60105 
L 159.6735 220.608 
L 161.6265 195.66 
L 163.5795 159.0696 
L 165.5325 114.9255 
L 166.509 104.3919 
L 167.4855 106.1244 
L 168.462 119.04885 
L 170.415 176.3253 
L 172.368 209.27745 
L 173.3445 224.73135 
L 174.321 235.0917 
L 175.2975 249.19425 
L 176.274 259.65855 
L 177.2505 263.05425 
L 178.227 269.5338 
L 179.2035 271.16235 
L 180.18 270.46935 
L 181.1565 270.95445 
L 182.133 272.3751 
L 183.1095 270.0189 
L 184.086 264.8907 
L 185.0625 260.83665 
L 186.039 259.0695 
L 187.0155 250.64955 
L 187.992 240.53175 
L 188.9685 236.92815 
L 189.945 226.4985 
L 190.9215 213.0543 
L 191.898 202.55535 
L 192.8745 187.8291 
L 194.8275 152.52075 
L 195.804 128.9241 
L 196.7805 108.30735 
L 197.757 101.10015 
L 198.7335 104.877 
L 199.71 120.64275 
L 200.6865 147.15 
L 201.663 178.64685 
L 203.616 209.3814 
L 205.569 234.7452 
L 206.5455 246.5955 
L 207.522 256.74795 
L 208.4985 261.4257 
L 209.475 263.81655 
L 210.4515 267.039 
L 211.428 265.34115 
L 212.4045 266.2074 
L 213.381 267.6627 
L 214.3575 268.39035 
L 215.334 268.32105 
L 216.3105 264.02445 
L 217.287 262.22265 
L 218.2635 255.1887 
L 219.24 245.0709 
L 220.2165 242.0217 
L 221.193 234.1215 
L 222.1695 217.6974 
L 223.146 208.30725 
L 224.1225 194.2047 
L 225.099 173.484 
L 226.0755 156.19365 
L 227.052 129.5478 
L 228.0285 113.50485 
L 229.005 109.4508 
L 229.9815 117.2124 
L 230.958 138.45285 
L 231.9345 169.29135 
L 232.911 193.13055 
L 233.8875 205.7778 
L 236.817 248.6745 
L 238.77 266.1381 
L 239.7465 268.0092 
L 240.723 268.9101 
L 241.6995 273.4146 
L 242.676 272.47905 
L 243.6525 270.40005 
L 245.6055 268.6329 
L 246.582 265.9995 
L 248.535 255.7431 
L 249.5115 249.714 
L 250.488 238.59135 
L 251.4645 233.67105 
L 252.441 225.49365 
L 253.4175 209.9358 
L 254.394 199.2636 
L 255.3705 182.59695 
L 256.347 162.4653 
L 257.3235 146.5956 
L 258.3 118.97955 
L 259.2765 105.0849 
L 260.253 103.0752 
L 261.2295 112.60395 
L 262.206 133.0821 
L 263.1825 167.5242 
L 264.159 187.44795 
L 268.065 244.1007 
L 269.0415 254.32245 
L 270.018 259.1388 
L 270.9945 266.31135 
L 271.971 269.3259 
L 272.9475 270.504 
L 273.924 273.65715 
L 274.9005 271.5435 
L 275.877 271.43955 
L 276.8535 270.33075 
L 277.83 265.89555 
L 278.8065 265.3758 
L 279.783 258.75765 
L 280.7595 253.21365 
L 281.736 246.00645 
L 283.689 229.4091 
L 284.6655 215.09865 
L 285.642 203.6295 
L 286.6185 187.6905 
L 289.548 124.281 
L 290.5245 112.2228 
L 291.501 111.0447 
L 292.4775 122.7564 
L 293.454 146.1105 
L 294.4305 177.5034 
L 296.3835 212.4999 
L 298.3365 238.79925 
L 299.313 252.45135 
L 300.2895 260.4555 
L 301.266 264.1284 
L 303.219 268.45965 
L 304.1955 268.2171 
L 305.172 265.89555 
L 306.1485 269.15265 
L 307.125 266.8311 
L 308.1015 264.09375 
L 309.078 260.7327 
L 310.0545 259.2081 
L 311.031 250.0605 
L 312.984 237.34395 
L 313.9605 227.9538 
L 314.937 215.51445 
L 315.9135 204.91155 
L 316.89 192.3336 
L 318.843 156.05505 
L 320.796 111.49515 
L 321.7725 102.07035 
L 322.749 104.08005 
L 323.7255 117.24705 
L 324.702 143.09595 
L 325.6785 174.87 
L 326.655 192.57615 
L 328.608 221.7168 
L 329.5845 233.74035 
L 330.561 247.1499 
L 331.5375 257.0598 
L 332.514 260.2476 
L 334.467 270.26145 
L 335.4435 268.2864 
L 336.42 268.9101 
L 337.3965 271.92465 
L 338.373 271.50885 
L 339.3495 266.2074 
L 340.326 264.5442 
L 341.3025 262.01475 
L 343.2555 244.1007 
L 344.232 239.8041 
L 345.2085 229.4091 
L 347.1615 205.74315 
L 348.138 190.21995 
L 349.1145 170.5734 
L 350.091 156.2283 
L 352.044 111.28725 
L 353.0205 103.80285 
L 353.997 107.649 
L 354.9735 125.97885 
L 355.95 149.81805 
L 356.9265 182.0079 
L 361.809 251.0307 
L 362.7855 262.1187 
L 363.762 265.20255 
L 364.7385 270.5733 
L 365.715 273.44925 
L 366.6915 274.1769 
L 368.6445 277.46865 
L 370.5975 271.6128 
L 371.574 266.2074 
L 372.5505 265.41045 
L 373.527 256.2282 
L 374.5035 245.31345 
L 375.48 241.22475 
L 376.4565 232.00785 
L 377.433 216.55395 
L 378.4095 206.748 
L 379.386 192.29895 
L 381.339 156.7134 
L 382.3155 129.7557 
L 383.292 112.0149 
L 384.2685 106.956 
L 385.245 111.7377 
L 386.2215 132.1119 
L 388.1745 188.76465 
L 389.151 200.5803 
L 392.0805 244.27395 
L 393.057 254.59965 
L 394.0335 266.9697 
L 397.9395 281.2455 
L 398.916 286.20045 
L 399.8925 289.7001 
L 400.869 288.48735 
L 401.8455 288.14085 
L 402.822 310.005 
L 403.7985 298.7784 
L 404.775 302.7285 
L 405.7515 294.8976 
L 406.728 299.5407 
L 407.7045 297.1845 
L 408.681 294.51645 
L 409.6575 320.08815 
L 409.88768 361 
M 411.290306 361 
L 411.6105 296.2836 
L 412.587 296.838 
L 413.5635 289.11105 
L 414.54 274.8699 
L 415.5165 270.19215 
L 416.493 280.03275 
L 417.4695 285.09165 
L 418.446 293.4423 
L 419.4225 337.48245 
L 420.399 304.3224 
L 421.3755 303.9759 
L 421.669077 361 
M 423.027274 361 
L 423.3285 301.8276 
L 424.305 303.80265 
L 425.2815 299.57535 
L 426.258 308.44575 
L 427.2345 315.86085 
L 428.211 328.9239 
L 429.1875 318.1131 
L 430.164 296.17965 
L 431.1405 312.67305 
L 432.117 294.759 
L 433.0935 301.03065 
L 434.07 295.00155 
L 434.39443 361 
M 435.70698 361 
L 436.023 297.531 
L 436.9995 317.7666 
L 437.976 310.7673 
L 438.9525 286.40835 
L 440.9055 312.60375 
L 441.166532 361 
M 442.826258 361 
L 442.8585 356.47065 
L 443.835 303.45615 
L 444.493154 361 
M 445.086056 361 
L 445.788 289.8387 
L 446.7645 301.93155 
L 447.741 311.7375 
L 448.7175 304.461 
L 449.694 335.4381 
L 450.6705 316.41525 
L 451.647 310.4901 
L 452.6235 309.5199 
L 453.6 292.16025 
L 454.5765 300.47625 
L 455.553 295.7292 
L 455.875033 361 
M 457.222038 361 
L 457.506 306.6093 
L 457.789962 361 
M 459.201131 361 
L 459.459 313.4007 
L 460.4355 306.8865 
L 460.718434 361 
M 462.130079 361 
L 462.3885 313.2621 
L 463.365 297.56565 
L 464.3415 298.60515 
L 466.2945 305.39655 
L 467.271 321.47415 
L 468.2475 302.90175 
L 469.224 296.52615 
L 470.2005 294.8283 
L 471.177 327.64185 
L 472.1535 299.5407 
L 473.13 296.6994 
L 474.1065 294.5511 
L 475.083 297.77355 
L 476.0595 291.4326 
L 477.036 292.29885 
L 478.989 322.09785 
L 479.9655 296.73405 
L 480.942 296.4222 
L 481.9185 337.06665 
L 482.895 290.3931 
L 483.8715 311.3217 
L 484.848 298.74375 
L 485.8245 295.27875 
L 486.801 302.48595 
L 487.7775 312.18795 
L 488.754 311.42565 
L 489.7305 320.22675 
L 490.707 317.1429 
L 491.6835 300.5109 
L 492.66 297.1845 
L 492.977185 361 
M 494.267759 361 
L 494.613 288.4527 
L 495.5895 299.1249 
L 496.566 303.8373 
L 496.860076 361 
M 498.217896 361 
L 498.519 301.86225 
L 499.4955 301.58505 
L 500.472 322.72155 
L 501.4485 290.1159 
L 502.425 303.59475 
L 503.4015 304.07985 
L 504.378 298.67445 
L 505 299.182082 
L 505 299.182082 
" clip-path="url(#p4cfd86ba2f)" style="fill: none; stroke: #1f77b4; stroke-width: 1.5; stroke-linecap: square"/>
   </g>
   <g id="patch_3">
    <path d="M 63 320.4 
L 63 43.2 
" style="fill: none; stroke: #000000; stroke-width: 0.8; stroke-linejoin: miter; stroke-linecap: square"/>
   </g>
   <g id="patch_4">
    <path d="M 453.6 320.4 
L 453.6 43.2 
" style="fill: none; stroke: #000000; stroke-width: 0.8; stroke-linejoin: miter; stroke-linecap: square"/>
   </g>
   <g id="patch_5">
    <path d="M 63 320.4 
L 453.6 320.4 
" style="fill: none; stroke: #000000; stroke-width: 0.8; stroke-linejoin: miter; stroke-linecap: square"/>
   </g>
   <g id="patch_6">
    <path d="M 63 43.2 
L 453.6 43.2 
" style="fill: none; stroke: #000000; stroke-width: 0.8; stroke-linejoin: miter; stroke-linecap: square"/>
   </g>
  </g>
 </g>
 <defs>
  <clipPath id="p4cfd86ba2f">
   <rect x="63" y="43.2" width="390.6" height="277.2"/>
  </clipPath>
 </defs>
</svg>
