<?xml version="1.0" encoding="utf-8" standalone="no"?>
<!DOCTYPE svg PUBLIC "-//W3C//DTD SVG 1.1//EN"
  "http://www.w3.org/Graphics/SVG/1.1/DTD/svg11.dtd">
<svg xmlns:xlink="http://www.w3.org/1999/xlink" width="360pt" height="360pt" viewBox="0 0 360 360" xmlns="http://www.w3.org/2000/svg" version="1.1">
 <metadata>
  <rdf:RDF xmlns:dc="http://purl.org/dc/elements/1.1/" xmlns:cc="http://creativecommons.org/ns#" xmlns:rdf="http://www.w3.org/1999/02/22-rdf-syntax-ns#">
   <cc:Work>
    <dc:type rdf:resource="http://purl.org/dc/dcmitype/StillImage"/>
    <dc:date>2023-10-20T12:08:35.773328</dc:date>
    <dc:format>image/svg+xml</dc:format>
    <dc:creator>
     <cc:Agent>
      <dc:title>Matplotlib v3.7.2, https://matplotlib.org/</dc:title>
     </cc:Agent>
    </dc:creator>
   </cc:Work>
  </rdf:RDF>
 </metadata>
 <defs>
  <style type="text/css">*{stroke-linejoin: round; stroke-linecap: butt}</style>
 </defs>
 <g id="figure_1">
  <g id="patch_1">
   <path d="M 0 360 
L 360 360 
L 360 0 
L 0 0 
z
" style="fill: #ffffff"/>
  </g>
  <g id="axes_1">
   <g id="patch_2">
    <path d="M 45 320.4 
L 324 320.4 
L 324 43.2 
L 45 43.2 
z
" style="fill: #ffffff"/>
   </g>
   <g id="matplotlib.axis_1">
    <g id="xtick_1">
     <g id="line2d_1">
      <defs>
       <path id="m3333dc5b6d" d="M 0 0 
L 0 -3.5 
" style="stroke: #000000; stroke-width: 0.8"/>
      </defs>
      <g>
       <use xlink:href="#m3333dc5b6d" x="68.25" y="320.4" style="stroke: #000000; stroke-width: 0.8"/>
      </g>
     </g>
     <g id="text_1">
      <text style="font: 14px 'Helvetica', sans-serif; text-anchor: middle" x="68.25" y="336.442813" transform="rotate(-0 68.25 336.442813)">0</text>
     </g>
    </g>
    <g id="xtick_2">
     <g id="line2d_2">
      <g>
       <use xlink:href="#m3333dc5b6d" x="114.75" y="320.4" style="stroke: #000000; stroke-width: 0.8"/>
      </g>
     </g>
     <g id="text_2">
      <text style="font: 14px 'Helvetica', sans-serif; text-anchor: middle" x="114.75" y="336.442813" transform="rotate(-0 114.75 336.442813)">10</text>
     </g>
    </g>
    <g id="xtick_3">
     <g id="line2d_3">
      <g>
       <use xlink:href="#m3333dc5b6d" x="161.25" y="320.4" style="stroke: #000000; stroke-width: 0.8"/>
      </g>
     </g>
     <g id="text_3">
      <text style="font: 14px 'Helvetica', sans-serif; text-anchor: middle" x="161.25" y="336.442813" transform="rotate(-0 161.25 336.442813)">20</text>
     </g>
    </g>
    <g id="xtick_4">
     <g id="line2d_4">
      <g>
       <use xlink:href="#m3333dc5b6d" x="207.75" y="320.4" style="stroke: #000000; stroke-width: 0.8"/>
      </g>
     </g>
     <g id="text_4">
      <text style="font: 14px 'Helvetica', sans-serif; text-anchor: middle" x="207.75" y="336.442813" transform="rotate(-0 207.75 336.442813)">30</text>
     </g>
    </g>
    <g id="xtick_5">
     <g id="line2d_5">
      <g>
       <use xlink:href="#m3333dc5b6d" x="254.25" y="320.4" style="stroke: #000000; stroke-width: 0.8"/>
      </g>
     </g>
     <g id="text_5">
      <text style="font: 14px 'Helvetica', sans-serif; text-anchor: middle" x="254.25" y="336.442813" transform="rotate(-0 254.25 336.442813)">40</text>
     </g>
    </g>
    <g id="xtick_6">
     <g id="line2d_6">
      <g>
       <use xlink:href="#m3333dc5b6d" x="300.75" y="320.4" style="stroke: #000000; stroke-width: 0.8"/>
      </g>
     </g>
     <g id="text_6">
      <text style="font: 14px 'Helvetica', sans-serif; text-anchor: middle" x="300.75" y="336.442813" transform="rotate(-0 300.75 336.442813)">50</text>
     </g>
    </g>
    <g id="xtick_7">
     <g id="line2d_7">
      <defs>
       <path id="m6b4ed2f27b" d="M 0 0 
L 0 -2 
" style="stroke: #000000; stroke-width: 0.6"/>
      </defs>
      <g>
       <use xlink:href="#m6b4ed2f27b" x="91.5" y="320.4" style="stroke: #000000; stroke-width: 0.6"/>
      </g>
     </g>
    </g>
    <g id="xtick_8">
     <g id="line2d_8">
      <g>
       <use xlink:href="#m6b4ed2f27b" x="138" y="320.4" style="stroke: #000000; stroke-width: 0.6"/>
      </g>
     </g>
    </g>
    <g id="xtick_9">
     <g id="line2d_9">
      <g>
       <use xlink:href="#m6b4ed2f27b" x="184.5" y="320.4" style="stroke: #000000; stroke-width: 0.6"/>
      </g>
     </g>
    </g>
    <g id="xtick_10">
     <g id="line2d_10">
      <g>
       <use xlink:href="#m6b4ed2f27b" x="231" y="320.4" style="stroke: #000000; stroke-width: 0.6"/>
      </g>
     </g>
    </g>
    <g id="xtick_11">
     <g id="line2d_11">
      <g>
       <use xlink:href="#m6b4ed2f27b" x="277.5" y="320.4" style="stroke: #000000; stroke-width: 0.6"/>
      </g>
     </g>
    </g>
    <g id="text_7">
     <text style="font: 14px 'Helvetica', sans-serif; text-anchor: middle" x="184.5" y="355.615938" transform="rotate(-0 184.5 355.615938)">SNR (dB)</text>
    </g>
   </g>
   <g id="matplotlib.axis_2">
    <g id="ytick_1">
     <g id="line2d_12">
      <defs>
       <path id="m58395f5503" d="M 0 0 
L 3.5 0 
" style="stroke: #000000; stroke-width: 0.8"/>
      </defs>
      <g>
       <use xlink:href="#m58395f5503" x="45" y="297.3" style="stroke: #000000; stroke-width: 0.8"/>
      </g>
     </g>
     <g id="text_8">
      <text style="font: 14px 'Helvetica', sans-serif; text-anchor: end" x="39" y="302.321406" transform="rotate(-0 39 302.321406)">0.0</text>
     </g>
    </g>
    <g id="ytick_2">
     <g id="line2d_13">
      <g>
       <use xlink:href="#m58395f5503" x="45" y="251.1" style="stroke: #000000; stroke-width: 0.8"/>
      </g>
     </g>
     <g id="text_9">
      <text style="font: 14px 'Helvetica', sans-serif; text-anchor: end" x="39" y="256.121406" transform="rotate(-0 39 256.121406)">0.1</text>
     </g>
    </g>
    <g id="ytick_3">
     <g id="line2d_14">
      <g>
       <use xlink:href="#m58395f5503" x="45" y="204.9" style="stroke: #000000; stroke-width: 0.8"/>
      </g>
     </g>
     <g id="text_10">
      <text style="font: 14px 'Helvetica', sans-serif; text-anchor: end" x="39" y="209.921406" transform="rotate(-0 39 209.921406)">0.2</text>
     </g>
    </g>
    <g id="ytick_4">
     <g id="line2d_15">
      <g>
       <use xlink:href="#m58395f5503" x="45" y="158.7" style="stroke: #000000; stroke-width: 0.8"/>
      </g>
     </g>
     <g id="text_11">
      <text style="font: 14px 'Helvetica', sans-serif; text-anchor: end" x="39" y="163.721406" transform="rotate(-0 39 163.721406)">0.3</text>
     </g>
    </g>
    <g id="ytick_5">
     <g id="line2d_16">
      <g>
       <use xlink:href="#m58395f5503" x="45" y="112.5" style="stroke: #000000; stroke-width: 0.8"/>
      </g>
     </g>
     <g id="text_12">
      <text style="font: 14px 'Helvetica', sans-serif; text-anchor: end" x="39" y="117.521406" transform="rotate(-0 39 117.521406)">0.4</text>
     </g>
    </g>
    <g id="ytick_6">
     <g id="line2d_17">
      <g>
       <use xlink:href="#m58395f5503" x="45" y="66.3" style="stroke: #000000; stroke-width: 0.8"/>
      </g>
     </g>
     <g id="text_13">
      <text style="font: 14px 'Helvetica', sans-serif; text-anchor: end" x="39" y="71.321406" transform="rotate(-0 39 71.321406)">0.5</text>
     </g>
    </g>
    <g id="text_14">
     <text style="font: 14px 'Helvetica', sans-serif; text-anchor: middle" x="10.621875" y="181.8" transform="rotate(-90 10.621875 181.8)">RMSE</text>
    </g>
   </g>
   <g id="line2d_18">
    <path d="M 68.25 73.87218 
L 91.5 172.40754 
L 114.75 226.72026 
L 138 257.60496 
L 161.25 275.0316 
L 184.5 284.78904 
L 207.75 290.24526 
L 231 293.33604 
L 254.25 295.07316 
L 277.5 296.04336 
L 300.75 296.59776 
" clip-path="url(#p5b8311c7b8)" style="fill: none; stroke: #6667ab; stroke-width: 1.5; stroke-linecap: square"/>
    <defs>
     <path id="mdd68fd9ec7" d="M 0 3 
C 0.795609 3 1.55874 2.683901 2.12132 2.12132 
C 2.683901 1.55874 3 0.795609 3 0 
C 3 -0.795609 2.683901 -1.55874 2.12132 -2.12132 
C 1.55874 -2.683901 0.795609 -3 0 -3 
C -0.795609 -3 -1.55874 -2.683901 -2.12132 -2.12132 
C -2.683901 -1.55874 -3 -0.795609 -3 0 
C -3 0.795609 -2.683901 1.55874 -2.12132 2.12132 
C -1.55874 2.683901 -0.795609 3 0 3 
z
" style="stroke: #6667ab"/>
    </defs>
    <g clip-path="url(#p5b8311c7b8)">
     <use xlink:href="#mdd68fd9ec7" x="68.25" y="73.87218" style="fill: #6667ab; stroke: #6667ab"/>
     <use xlink:href="#mdd68fd9ec7" x="91.5" y="172.40754" style="fill: #6667ab; stroke: #6667ab"/>
     <use xlink:href="#mdd68fd9ec7" x="114.75" y="226.72026" style="fill: #6667ab; stroke: #6667ab"/>
     <use xlink:href="#mdd68fd9ec7" x="138" y="257.60496" style="fill: #6667ab; stroke: #6667ab"/>
     <use xlink:href="#mdd68fd9ec7" x="161.25" y="275.0316" style="fill: #6667ab; stroke: #6667ab"/>
     <use xlink:href="#mdd68fd9ec7" x="184.5" y="284.78904" style="fill: #6667ab; stroke: #6667ab"/>
     <use xlink:href="#mdd68fd9ec7" x="207.75" y="290.24526" style="fill: #6667ab; stroke: #6667ab"/>
     <use xlink:href="#mdd68fd9ec7" x="231" y="293.33604" style="fill: #6667ab; stroke: #6667ab"/>
     <use xlink:href="#mdd68fd9ec7" x="254.25" y="295.07316" style="fill: #6667ab; stroke: #6667ab"/>
     <use xlink:href="#mdd68fd9ec7" x="277.5" y="296.04336" style="fill: #6667ab; stroke: #6667ab"/>
     <use xlink:href="#mdd68fd9ec7" x="300.75" y="296.59776" style="fill: #6667ab; stroke: #6667ab"/>
    </g>
   </g>
   <g id="line2d_19">
    <path d="M 68.25 257.86368 
L 91.5 260.38158 
L 114.75 269.20578 
L 138 277.5264 
L 161.25 288.95628 
L 184.5 296.74098 
L 207.75 297.3 
L 231 297.3 
L 254.25 297.3 
L 277.5 297.3 
L 300.75 297.3 
" clip-path="url(#p5b8311c7b8)" style="fill: none; stroke: #d29381; stroke-width: 1.5; stroke-linecap: square"/>
    <defs>
     <path id="m6cdfd254e7" d="M 0 -3 
L -0.673542 -0.927051 
L -2.85317 -0.927051 
L -1.089814 0.354102 
L -1.763356 2.427051 
L -0 1.145898 
L 1.763356 2.427051 
L 1.089814 0.354102 
L 2.85317 -0.927051 
L 0.673542 -0.927051 
z
" style="stroke: #d29381; stroke-linejoin: bevel"/>
    </defs>
    <g clip-path="url(#p5b8311c7b8)">
     <use xlink:href="#m6cdfd254e7" x="68.25" y="257.86368" style="fill: #d29381; stroke: #d29381; stroke-linejoin: bevel"/>
     <use xlink:href="#m6cdfd254e7" x="91.5" y="260.38158" style="fill: #d29381; stroke: #d29381; stroke-linejoin: bevel"/>
     <use xlink:href="#m6cdfd254e7" x="114.75" y="269.20578" style="fill: #d29381; stroke: #d29381; stroke-linejoin: bevel"/>
     <use xlink:href="#m6cdfd254e7" x="138" y="277.5264" style="fill: #d29381; stroke: #d29381; stroke-linejoin: bevel"/>
     <use xlink:href="#m6cdfd254e7" x="161.25" y="288.95628" style="fill: #d29381; stroke: #d29381; stroke-linejoin: bevel"/>
     <use xlink:href="#m6cdfd254e7" x="184.5" y="296.74098" style="fill: #d29381; stroke: #d29381; stroke-linejoin: bevel"/>
     <use xlink:href="#m6cdfd254e7" x="207.75" y="297.3" style="fill: #d29381; stroke: #d29381; stroke-linejoin: bevel"/>
     <use xlink:href="#m6cdfd254e7" x="231" y="297.3" style="fill: #d29381; stroke: #d29381; stroke-linejoin: bevel"/>
     <use xlink:href="#m6cdfd254e7" x="254.25" y="297.3" style="fill: #d29381; stroke: #d29381; stroke-linejoin: bevel"/>
     <use xlink:href="#m6cdfd254e7" x="277.5" y="297.3" style="fill: #d29381; stroke: #d29381; stroke-linejoin: bevel"/>
     <use xlink:href="#m6cdfd254e7" x="300.75" y="297.3" style="fill: #d29381; stroke: #d29381; stroke-linejoin: bevel"/>
    </g>
   </g>
   <g id="patch_3">
    <path d="M 45 320.4 
L 45 43.2 
" style="fill: none; stroke: #000000; stroke-width: 0.8; stroke-linejoin: miter; stroke-linecap: square"/>
   </g>
   <g id="patch_4">
    <path d="M 324 320.4 
L 324 43.2 
" style="fill: none; stroke: #000000; stroke-width: 0.8; stroke-linejoin: miter; stroke-linecap: square"/>
   </g>
   <g id="patch_5">
    <path d="M 45 320.4 
L 324 320.4 
" style="fill: none; stroke: #000000; stroke-width: 0.8; stroke-linejoin: miter; stroke-linecap: square"/>
   </g>
   <g id="patch_6">
    <path d="M 45 43.2 
L 324 43.2 
" style="fill: none; stroke: #000000; stroke-width: 0.8; stroke-linejoin: miter; stroke-linecap: square"/>
   </g>
   <g id="legend_1">
    <g id="patch_7">
     <path d="M 225.809687 94.680625 
L 314.2 94.680625 
Q 317 94.680625 317 91.880625 
L 317 53 
Q 317 50.2 314.2 50.2 
L 225.809687 50.2 
Q 223.009687 50.2 223.009687 53 
L 223.009687 91.880625 
Q 223.009687 94.680625 225.809687 94.680625 
z
" style="fill: #ffffff; opacity: 0.8; stroke: #cccccc; stroke-linejoin: miter"/>
    </g>
    <g id="line2d_20">
     <path d="M 228.609687 60.942812 
L 242.609687 60.942812 
L 256.609687 60.942812 
" style="fill: none; stroke: #6667ab; stroke-width: 1.5; stroke-linecap: square"/>
     <g>
      <use xlink:href="#mdd68fd9ec7" x="242.609687" y="60.942812" style="fill: #6667ab; stroke: #6667ab"/>
     </g>
    </g>
    <g id="text_15">
     <text style="font: 14px 'Helvetica', sans-serif; text-anchor: start" x="267.809687" y="65.842812" transform="rotate(-0 267.809687 65.842812)">Analog</text>
    </g>
    <g id="line2d_21">
     <path d="M 228.609687 81.083125 
L 242.609687 81.083125 
L 256.609687 81.083125 
" style="fill: none; stroke: #d29381; stroke-width: 1.5; stroke-linecap: square"/>
     <g>
      <use xlink:href="#m6cdfd254e7" x="242.609687" y="81.083125" style="fill: #d29381; stroke: #d29381; stroke-linejoin: bevel"/>
     </g>
    </g>
    <g id="text_16">
     <text style="font: 14px 'Helvetica', sans-serif; text-anchor: start" x="267.809687" y="85.983125" transform="rotate(-0 267.809687 85.983125)">Digital</text>
    </g>
   </g>
  </g>
 </g>
 <defs>
  <clipPath id="p5b8311c7b8">
   <rect x="45" y="43.2" width="279" height="277.2"/>
  </clipPath>
 </defs>
</svg>
