<?xml version="1.0" encoding="utf-8" standalone="no"?>
<!DOCTYPE svg PUBLIC "-//W3C//DTD SVG 1.1//EN"
  "http://www.w3.org/Graphics/SVG/1.1/DTD/svg11.dtd">
<svg xmlns:xlink="http://www.w3.org/1999/xlink" width="360pt" height="360pt" viewBox="0 0 360 360" xmlns="http://www.w3.org/2000/svg" version="1.1">
 <metadata>
  <rdf:RDF xmlns:dc="http://purl.org/dc/elements/1.1/" xmlns:cc="http://creativecommons.org/ns#" xmlns:rdf="http://www.w3.org/1999/02/22-rdf-syntax-ns#">
   <cc:Work>
    <dc:type rdf:resource="http://purl.org/dc/dcmitype/StillImage"/>
    <dc:date>2023-10-20T12:08:35.740556</dc:date>
    <dc:format>image/svg+xml</dc:format>
    <dc:creator>
     <cc:Agent>
      <dc:title>Matplotlib v3.7.2, https://matplotlib.org/</dc:title>
     </cc:Agent>
    </dc:creator>
   </cc:Work>
  </rdf:RDF>
 </metadata>
 <defs>
  <style type="text/css">*{stroke-linejoin: round; stroke-linecap: butt}</style>
 </defs>
 <g id="figure_1">
  <g id="patch_1">
   <path d="M 0 360 
L 360 360 
L 360 0 
L 0 0 
z
" style="fill: #ffffff"/>
  </g>
  <g id="axes_1">
   <g id="patch_2">
    <path d="M 45 320.4 
L 324 320.4 
L 324 43.2 
L 45 43.2 
z
" style="fill: #ffffff"/>
   </g>
   <g id="patch_3">
    <path d="M 37.355377 320.4 
L 40.269132 320.4 
L 40.269132 320.392466 
L 37.355377 320.392466 
z
" clip-path="url(#pae10fba4df)" style="fill: #6667ab; opacity: 0.5"/>
   </g>
   <g id="patch_4">
    <path d="M 40.269132 320.4 
L 43.182887 320.4 
L 43.182887 320.4 
L 40.269132 320.4 
z
" clip-path="url(#pae10fba4df)" style="fill: #6667ab; opacity: 0.5"/>
   </g>
   <g id="patch_5">
    <path d="M 43.182887 320.4 
L 46.096642 320.4 
L 46.096642 320.4 
L 43.182887 320.4 
z
" clip-path="url(#pae10fba4df)" style="fill: #6667ab; opacity: 0.5"/>
   </g>
   <g id="patch_6">
    <path d="M 46.096642 320.4 
L 49.010397 320.4 
L 49.010397 320.4 
L 46.096642 320.4 
z
" clip-path="url(#pae10fba4df)" style="fill: #6667ab; opacity: 0.5"/>
   </g>
   <g id="patch_7">
    <path d="M 49.010397 320.4 
L 51.924152 320.4 
L 51.924152 320.4 
L 49.010397 320.4 
z
" clip-path="url(#pae10fba4df)" style="fill: #6667ab; opacity: 0.5"/>
   </g>
   <g id="patch_8">
    <path d="M 51.924152 320.4 
L 54.837906 320.4 
L 54.837906 320.4 
L 51.924152 320.4 
z
" clip-path="url(#pae10fba4df)" style="fill: #6667ab; opacity: 0.5"/>
   </g>
   <g id="patch_9">
    <path d="M 54.837906 320.4 
L 57.751661 320.4 
L 57.751661 320.4 
L 54.837906 320.4 
z
" clip-path="url(#pae10fba4df)" style="fill: #6667ab; opacity: 0.5"/>
   </g>
   <g id="patch_10">
    <path d="M 57.751661 320.4 
L 60.665416 320.4 
L 60.665416 320.4 
L 57.751661 320.4 
z
" clip-path="url(#pae10fba4df)" style="fill: #6667ab; opacity: 0.5"/>
   </g>
   <g id="patch_11">
    <path d="M 60.665416 320.4 
L 63.579171 320.4 
L 63.579171 320.4 
L 60.665416 320.4 
z
" clip-path="url(#pae10fba4df)" style="fill: #6667ab; opacity: 0.5"/>
   </g>
   <g id="patch_12">
    <path d="M 63.579171 320.4 
L 66.492926 320.4 
L 66.492926 320.4 
L 63.579171 320.4 
z
" clip-path="url(#pae10fba4df)" style="fill: #6667ab; opacity: 0.5"/>
   </g>
   <g id="patch_13">
    <path d="M 66.492926 320.4 
L 69.406681 320.4 
L 69.406681 320.4 
L 66.492926 320.4 
z
" clip-path="url(#pae10fba4df)" style="fill: #6667ab; opacity: 0.5"/>
   </g>
   <g id="patch_14">
    <path d="M 69.406681 320.4 
L 72.320436 320.4 
L 72.320436 320.4 
L 69.406681 320.4 
z
" clip-path="url(#pae10fba4df)" style="fill: #6667ab; opacity: 0.5"/>
   </g>
   <g id="patch_15">
    <path d="M 72.320436 320.4 
L 75.234191 320.4 
L 75.234191 320.4 
L 72.320436 320.4 
z
" clip-path="url(#pae10fba4df)" style="fill: #6667ab; opacity: 0.5"/>
   </g>
   <g id="patch_16">
    <path d="M 75.234191 320.4 
L 78.147946 320.4 
L 78.147946 320.4 
L 75.234191 320.4 
z
" clip-path="url(#pae10fba4df)" style="fill: #6667ab; opacity: 0.5"/>
   </g>
   <g id="patch_17">
    <path d="M 78.147946 320.4 
L 81.061701 320.4 
L 81.061701 320.4 
L 78.147946 320.4 
z
" clip-path="url(#pae10fba4df)" style="fill: #6667ab; opacity: 0.5"/>
   </g>
   <g id="patch_18">
    <path d="M 81.061701 320.4 
L 83.975456 320.4 
L 83.975456 320.4 
L 81.061701 320.4 
z
" clip-path="url(#pae10fba4df)" style="fill: #6667ab; opacity: 0.5"/>
   </g>
   <g id="patch_19">
    <path d="M 83.975456 320.4 
L 86.88921 320.4 
L 86.88921 320.4 
L 83.975456 320.4 
z
" clip-path="url(#pae10fba4df)" style="fill: #6667ab; opacity: 0.5"/>
   </g>
   <g id="patch_20">
    <path d="M 86.88921 320.4 
L 89.802965 320.4 
L 89.802965 320.4 
L 86.88921 320.4 
z
" clip-path="url(#pae10fba4df)" style="fill: #6667ab; opacity: 0.5"/>
   </g>
   <g id="patch_21">
    <path d="M 89.802965 320.4 
L 92.71672 320.4 
L 92.71672 320.4 
L 89.802965 320.4 
z
" clip-path="url(#pae10fba4df)" style="fill: #6667ab; opacity: 0.5"/>
   </g>
   <g id="patch_22">
    <path d="M 92.71672 320.4 
L 95.630475 320.4 
L 95.630475 320.4 
L 92.71672 320.4 
z
" clip-path="url(#pae10fba4df)" style="fill: #6667ab; opacity: 0.5"/>
   </g>
   <g id="patch_23">
    <path d="M 95.630475 320.4 
L 98.54423 320.4 
L 98.54423 320.4 
L 95.630475 320.4 
z
" clip-path="url(#pae10fba4df)" style="fill: #6667ab; opacity: 0.5"/>
   </g>
   <g id="patch_24">
    <path d="M 98.54423 320.4 
L 101.457985 320.4 
L 101.457985 320.4 
L 98.54423 320.4 
z
" clip-path="url(#pae10fba4df)" style="fill: #6667ab; opacity: 0.5"/>
   </g>
   <g id="patch_25">
    <path d="M 101.457985 320.4 
L 104.37174 320.4 
L 104.37174 320.4 
L 101.457985 320.4 
z
" clip-path="url(#pae10fba4df)" style="fill: #6667ab; opacity: 0.5"/>
   </g>
   <g id="patch_26">
    <path d="M 104.37174 320.4 
L 107.285495 320.4 
L 107.285495 320.4 
L 104.37174 320.4 
z
" clip-path="url(#pae10fba4df)" style="fill: #6667ab; opacity: 0.5"/>
   </g>
   <g id="patch_27">
    <path d="M 107.285495 320.4 
L 110.19925 320.4 
L 110.19925 320.4 
L 107.285495 320.4 
z
" clip-path="url(#pae10fba4df)" style="fill: #6667ab; opacity: 0.5"/>
   </g>
   <g id="patch_28">
    <path d="M 110.19925 320.4 
L 113.113005 320.4 
L 113.113005 320.4 
L 110.19925 320.4 
z
" clip-path="url(#pae10fba4df)" style="fill: #6667ab; opacity: 0.5"/>
   </g>
   <g id="patch_29">
    <path d="M 113.113005 320.4 
L 116.02676 320.4 
L 116.02676 320.4 
L 113.113005 320.4 
z
" clip-path="url(#pae10fba4df)" style="fill: #6667ab; opacity: 0.5"/>
   </g>
   <g id="patch_30">
    <path d="M 116.02676 320.4 
L 118.940515 320.4 
L 118.940515 320.4 
L 116.02676 320.4 
z
" clip-path="url(#pae10fba4df)" style="fill: #6667ab; opacity: 0.5"/>
   </g>
   <g id="patch_31">
    <path d="M 118.940515 320.4 
L 121.854269 320.4 
L 121.854269 320.4 
L 118.940515 320.4 
z
" clip-path="url(#pae10fba4df)" style="fill: #6667ab; opacity: 0.5"/>
   </g>
   <g id="patch_32">
    <path d="M 121.854269 320.4 
L 124.768024 320.4 
L 124.768024 320.4 
L 121.854269 320.4 
z
" clip-path="url(#pae10fba4df)" style="fill: #6667ab; opacity: 0.5"/>
   </g>
   <g id="patch_33">
    <path d="M 124.768024 320.4 
L 127.681779 320.4 
L 127.681779 320.4 
L 124.768024 320.4 
z
" clip-path="url(#pae10fba4df)" style="fill: #6667ab; opacity: 0.5"/>
   </g>
   <g id="patch_34">
    <path d="M 127.681779 320.4 
L 130.595534 320.4 
L 130.595534 320.4 
L 127.681779 320.4 
z
" clip-path="url(#pae10fba4df)" style="fill: #6667ab; opacity: 0.5"/>
   </g>
   <g id="patch_35">
    <path d="M 130.595534 320.4 
L 133.509289 320.4 
L 133.509289 320.4 
L 130.595534 320.4 
z
" clip-path="url(#pae10fba4df)" style="fill: #6667ab; opacity: 0.5"/>
   </g>
   <g id="patch_36">
    <path d="M 133.509289 320.4 
L 136.423044 320.4 
L 136.423044 320.4 
L 133.509289 320.4 
z
" clip-path="url(#pae10fba4df)" style="fill: #6667ab; opacity: 0.5"/>
   </g>
   <g id="patch_37">
    <path d="M 136.423044 320.4 
L 139.336799 320.4 
L 139.336799 320.4 
L 136.423044 320.4 
z
" clip-path="url(#pae10fba4df)" style="fill: #6667ab; opacity: 0.5"/>
   </g>
   <g id="patch_38">
    <path d="M 139.336799 320.4 
L 142.250554 320.4 
L 142.250554 320.4 
L 139.336799 320.4 
z
" clip-path="url(#pae10fba4df)" style="fill: #6667ab; opacity: 0.5"/>
   </g>
   <g id="patch_39">
    <path d="M 142.250554 320.4 
L 145.164309 320.4 
L 145.164309 320.4 
L 142.250554 320.4 
z
" clip-path="url(#pae10fba4df)" style="fill: #6667ab; opacity: 0.5"/>
   </g>
   <g id="patch_40">
    <path d="M 145.164309 320.4 
L 148.078064 320.4 
L 148.078064 320.39435 
L 145.164309 320.39435 
z
" clip-path="url(#pae10fba4df)" style="fill: #6667ab; opacity: 0.5"/>
   </g>
   <g id="patch_41">
    <path d="M 148.078064 320.4 
L 150.991819 320.4 
L 150.991819 320.4 
L 148.078064 320.4 
z
" clip-path="url(#pae10fba4df)" style="fill: #6667ab; opacity: 0.5"/>
   </g>
   <g id="patch_42">
    <path d="M 150.991819 320.4 
L 153.905573 320.4 
L 153.905573 320.4 
L 150.991819 320.4 
z
" clip-path="url(#pae10fba4df)" style="fill: #6667ab; opacity: 0.5"/>
   </g>
   <g id="patch_43">
    <path d="M 153.905573 320.4 
L 156.819328 320.4 
L 156.819328 320.4 
L 153.905573 320.4 
z
" clip-path="url(#pae10fba4df)" style="fill: #6667ab; opacity: 0.5"/>
   </g>
   <g id="patch_44">
    <path d="M 156.819328 320.4 
L 159.733083 320.4 
L 159.733083 320.4 
L 156.819328 320.4 
z
" clip-path="url(#pae10fba4df)" style="fill: #6667ab; opacity: 0.5"/>
   </g>
   <g id="patch_45">
    <path d="M 159.733083 320.4 
L 162.646838 320.4 
L 162.646838 320.4 
L 159.733083 320.4 
z
" clip-path="url(#pae10fba4df)" style="fill: #6667ab; opacity: 0.5"/>
   </g>
   <g id="patch_46">
    <path d="M 162.646838 320.4 
L 165.560593 320.4 
L 165.560593 320.4 
L 162.646838 320.4 
z
" clip-path="url(#pae10fba4df)" style="fill: #6667ab; opacity: 0.5"/>
   </g>
   <g id="patch_47">
    <path d="M 165.560593 320.4 
L 168.474348 320.4 
L 168.474348 320.398117 
L 165.560593 320.398117 
z
" clip-path="url(#pae10fba4df)" style="fill: #6667ab; opacity: 0.5"/>
   </g>
   <g id="patch_48">
    <path d="M 168.474348 320.4 
L 171.388103 320.4 
L 171.388103 320.4 
L 168.474348 320.4 
z
" clip-path="url(#pae10fba4df)" style="fill: #6667ab; opacity: 0.5"/>
   </g>
   <g id="patch_49">
    <path d="M 171.388103 320.4 
L 174.301858 320.4 
L 174.301858 320.4 
L 171.388103 320.4 
z
" clip-path="url(#pae10fba4df)" style="fill: #6667ab; opacity: 0.5"/>
   </g>
   <g id="patch_50">
    <path d="M 174.301858 320.4 
L 177.215613 320.4 
L 177.215613 320.398117 
L 174.301858 320.398117 
z
" clip-path="url(#pae10fba4df)" style="fill: #6667ab; opacity: 0.5"/>
   </g>
   <g id="patch_51">
    <path d="M 177.215613 320.4 
L 180.129368 320.4 
L 180.129368 320.398117 
L 177.215613 320.398117 
z
" clip-path="url(#pae10fba4df)" style="fill: #6667ab; opacity: 0.5"/>
   </g>
   <g id="patch_52">
    <path d="M 180.129368 320.4 
L 183.043123 320.4 
L 183.043123 320.392466 
L 180.129368 320.392466 
z
" clip-path="url(#pae10fba4df)" style="fill: #6667ab; opacity: 0.5"/>
   </g>
   <g id="patch_53">
    <path d="M 183.043123 320.4 
L 185.956877 320.4 
L 185.956877 68.464035 
L 183.043123 68.464035 
z
" clip-path="url(#pae10fba4df)" style="fill: #6667ab; opacity: 0.5"/>
   </g>
   <g id="patch_54">
    <path d="M 185.956877 320.4 
L 188.870632 320.4 
L 188.870632 320.390583 
L 185.956877 320.390583 
z
" clip-path="url(#pae10fba4df)" style="fill: #6667ab; opacity: 0.5"/>
   </g>
   <g id="patch_55">
    <path d="M 188.870632 320.4 
L 191.784387 320.4 
L 191.784387 320.4 
L 188.870632 320.4 
z
" clip-path="url(#pae10fba4df)" style="fill: #6667ab; opacity: 0.5"/>
   </g>
   <g id="patch_56">
    <path d="M 191.784387 320.4 
L 194.698142 320.4 
L 194.698142 320.392466 
L 191.784387 320.392466 
z
" clip-path="url(#pae10fba4df)" style="fill: #6667ab; opacity: 0.5"/>
   </g>
   <g id="patch_57">
    <path d="M 194.698142 320.4 
L 197.611897 320.4 
L 197.611897 320.4 
L 194.698142 320.4 
z
" clip-path="url(#pae10fba4df)" style="fill: #6667ab; opacity: 0.5"/>
   </g>
   <g id="patch_58">
    <path d="M 197.611897 320.4 
L 200.525652 320.4 
L 200.525652 320.4 
L 197.611897 320.4 
z
" clip-path="url(#pae10fba4df)" style="fill: #6667ab; opacity: 0.5"/>
   </g>
   <g id="patch_59">
    <path d="M 200.525652 320.4 
L 203.439407 320.4 
L 203.439407 320.39435 
L 200.525652 320.39435 
z
" clip-path="url(#pae10fba4df)" style="fill: #6667ab; opacity: 0.5"/>
   </g>
   <g id="patch_60">
    <path d="M 203.439407 320.4 
L 206.353162 320.4 
L 206.353162 320.4 
L 203.439407 320.4 
z
" clip-path="url(#pae10fba4df)" style="fill: #6667ab; opacity: 0.5"/>
   </g>
   <g id="patch_61">
    <path d="M 206.353162 320.4 
L 209.266917 320.4 
L 209.266917 320.4 
L 206.353162 320.4 
z
" clip-path="url(#pae10fba4df)" style="fill: #6667ab; opacity: 0.5"/>
   </g>
   <g id="patch_62">
    <path d="M 209.266917 320.4 
L 212.180672 320.4 
L 212.180672 320.4 
L 209.266917 320.4 
z
" clip-path="url(#pae10fba4df)" style="fill: #6667ab; opacity: 0.5"/>
   </g>
   <g id="patch_63">
    <path d="M 212.180672 320.4 
L 215.094427 320.4 
L 215.094427 320.4 
L 212.180672 320.4 
z
" clip-path="url(#pae10fba4df)" style="fill: #6667ab; opacity: 0.5"/>
   </g>
   <g id="patch_64">
    <path d="M 215.094427 320.4 
L 218.008181 320.4 
L 218.008181 320.4 
L 215.094427 320.4 
z
" clip-path="url(#pae10fba4df)" style="fill: #6667ab; opacity: 0.5"/>
   </g>
   <g id="patch_65">
    <path d="M 218.008181 320.4 
L 220.921936 320.4 
L 220.921936 320.4 
L 218.008181 320.4 
z
" clip-path="url(#pae10fba4df)" style="fill: #6667ab; opacity: 0.5"/>
   </g>
   <g id="patch_66">
    <path d="M 220.921936 320.4 
L 223.835691 320.4 
L 223.835691 320.392466 
L 220.921936 320.392466 
z
" clip-path="url(#pae10fba4df)" style="fill: #6667ab; opacity: 0.5"/>
   </g>
   <g id="patch_67">
    <path d="M 223.835691 320.4 
L 226.749446 320.4 
L 226.749446 320.4 
L 223.835691 320.4 
z
" clip-path="url(#pae10fba4df)" style="fill: #6667ab; opacity: 0.5"/>
   </g>
   <g id="patch_68">
    <path d="M 226.749446 320.4 
L 229.663201 320.4 
L 229.663201 320.4 
L 226.749446 320.4 
z
" clip-path="url(#pae10fba4df)" style="fill: #6667ab; opacity: 0.5"/>
   </g>
   <g id="patch_69">
    <path d="M 229.663201 320.4 
L 232.576956 320.4 
L 232.576956 320.4 
L 229.663201 320.4 
z
" clip-path="url(#pae10fba4df)" style="fill: #6667ab; opacity: 0.5"/>
   </g>
   <g id="patch_70">
    <path d="M 232.576956 320.4 
L 235.490711 320.4 
L 235.490711 320.4 
L 232.576956 320.4 
z
" clip-path="url(#pae10fba4df)" style="fill: #6667ab; opacity: 0.5"/>
   </g>
   <g id="patch_71">
    <path d="M 235.490711 320.4 
L 238.404466 320.4 
L 238.404466 320.4 
L 235.490711 320.4 
z
" clip-path="url(#pae10fba4df)" style="fill: #6667ab; opacity: 0.5"/>
   </g>
   <g id="patch_72">
    <path d="M 238.404466 320.4 
L 241.318221 320.4 
L 241.318221 320.4 
L 238.404466 320.4 
z
" clip-path="url(#pae10fba4df)" style="fill: #6667ab; opacity: 0.5"/>
   </g>
   <g id="patch_73">
    <path d="M 241.318221 320.4 
L 244.231976 320.4 
L 244.231976 320.4 
L 241.318221 320.4 
z
" clip-path="url(#pae10fba4df)" style="fill: #6667ab; opacity: 0.5"/>
   </g>
   <g id="patch_74">
    <path d="M 244.231976 320.4 
L 247.145731 320.4 
L 247.145731 320.4 
L 244.231976 320.4 
z
" clip-path="url(#pae10fba4df)" style="fill: #6667ab; opacity: 0.5"/>
   </g>
   <g id="patch_75">
    <path d="M 247.145731 320.4 
L 250.059485 320.4 
L 250.059485 320.4 
L 247.145731 320.4 
z
" clip-path="url(#pae10fba4df)" style="fill: #6667ab; opacity: 0.5"/>
   </g>
   <g id="patch_76">
    <path d="M 250.059485 320.4 
L 252.97324 320.4 
L 252.97324 320.4 
L 250.059485 320.4 
z
" clip-path="url(#pae10fba4df)" style="fill: #6667ab; opacity: 0.5"/>
   </g>
   <g id="patch_77">
    <path d="M 252.97324 320.4 
L 255.886995 320.4 
L 255.886995 320.4 
L 252.97324 320.4 
z
" clip-path="url(#pae10fba4df)" style="fill: #6667ab; opacity: 0.5"/>
   </g>
   <g id="patch_78">
    <path d="M 255.886995 320.4 
L 258.80075 320.4 
L 258.80075 320.398117 
L 255.886995 320.398117 
z
" clip-path="url(#pae10fba4df)" style="fill: #6667ab; opacity: 0.5"/>
   </g>
   <g id="patch_79">
    <path d="M 258.80075 320.4 
L 261.714505 320.4 
L 261.714505 320.4 
L 258.80075 320.4 
z
" clip-path="url(#pae10fba4df)" style="fill: #6667ab; opacity: 0.5"/>
   </g>
   <g id="patch_80">
    <path d="M 261.714505 320.4 
L 264.62826 320.4 
L 264.62826 320.4 
L 261.714505 320.4 
z
" clip-path="url(#pae10fba4df)" style="fill: #6667ab; opacity: 0.5"/>
   </g>
   <g id="patch_81">
    <path d="M 264.62826 320.4 
L 267.542015 320.4 
L 267.542015 320.4 
L 264.62826 320.4 
z
" clip-path="url(#pae10fba4df)" style="fill: #6667ab; opacity: 0.5"/>
   </g>
   <g id="patch_82">
    <path d="M 267.542015 320.4 
L 270.45577 320.4 
L 270.45577 320.4 
L 267.542015 320.4 
z
" clip-path="url(#pae10fba4df)" style="fill: #6667ab; opacity: 0.5"/>
   </g>
   <g id="patch_83">
    <path d="M 270.45577 320.4 
L 273.369525 320.4 
L 273.369525 320.4 
L 270.45577 320.4 
z
" clip-path="url(#pae10fba4df)" style="fill: #6667ab; opacity: 0.5"/>
   </g>
   <g id="patch_84">
    <path d="M 273.369525 320.4 
L 276.28328 320.4 
L 276.28328 320.4 
L 273.369525 320.4 
z
" clip-path="url(#pae10fba4df)" style="fill: #6667ab; opacity: 0.5"/>
   </g>
   <g id="patch_85">
    <path d="M 276.28328 320.4 
L 279.197035 320.4 
L 279.197035 320.4 
L 276.28328 320.4 
z
" clip-path="url(#pae10fba4df)" style="fill: #6667ab; opacity: 0.5"/>
   </g>
   <g id="patch_86">
    <path d="M 279.197035 320.4 
L 282.11079 320.4 
L 282.11079 320.4 
L 279.197035 320.4 
z
" clip-path="url(#pae10fba4df)" style="fill: #6667ab; opacity: 0.5"/>
   </g>
   <g id="patch_87">
    <path d="M 282.11079 320.4 
L 285.024544 320.4 
L 285.024544 320.4 
L 282.11079 320.4 
z
" clip-path="url(#pae10fba4df)" style="fill: #6667ab; opacity: 0.5"/>
   </g>
   <g id="patch_88">
    <path d="M 285.024544 320.4 
L 287.938299 320.4 
L 287.938299 320.4 
L 285.024544 320.4 
z
" clip-path="url(#pae10fba4df)" style="fill: #6667ab; opacity: 0.5"/>
   </g>
   <g id="patch_89">
    <path d="M 287.938299 320.4 
L 290.852054 320.4 
L 290.852054 320.4 
L 287.938299 320.4 
z
" clip-path="url(#pae10fba4df)" style="fill: #6667ab; opacity: 0.5"/>
   </g>
   <g id="patch_90">
    <path d="M 290.852054 320.4 
L 293.765809 320.4 
L 293.765809 320.4 
L 290.852054 320.4 
z
" clip-path="url(#pae10fba4df)" style="fill: #6667ab; opacity: 0.5"/>
   </g>
   <g id="patch_91">
    <path d="M 293.765809 320.4 
L 296.679564 320.4 
L 296.679564 320.4 
L 293.765809 320.4 
z
" clip-path="url(#pae10fba4df)" style="fill: #6667ab; opacity: 0.5"/>
   </g>
   <g id="patch_92">
    <path d="M 296.679564 320.4 
L 299.593319 320.4 
L 299.593319 320.4 
L 296.679564 320.4 
z
" clip-path="url(#pae10fba4df)" style="fill: #6667ab; opacity: 0.5"/>
   </g>
   <g id="patch_93">
    <path d="M 299.593319 320.4 
L 302.507074 320.4 
L 302.507074 320.4 
L 299.593319 320.4 
z
" clip-path="url(#pae10fba4df)" style="fill: #6667ab; opacity: 0.5"/>
   </g>
   <g id="patch_94">
    <path d="M 302.507074 320.4 
L 305.420829 320.4 
L 305.420829 320.4 
L 302.507074 320.4 
z
" clip-path="url(#pae10fba4df)" style="fill: #6667ab; opacity: 0.5"/>
   </g>
   <g id="patch_95">
    <path d="M 305.420829 320.4 
L 308.334584 320.4 
L 308.334584 320.4 
L 305.420829 320.4 
z
" clip-path="url(#pae10fba4df)" style="fill: #6667ab; opacity: 0.5"/>
   </g>
   <g id="patch_96">
    <path d="M 308.334584 320.4 
L 311.248339 320.4 
L 311.248339 320.4 
L 308.334584 320.4 
z
" clip-path="url(#pae10fba4df)" style="fill: #6667ab; opacity: 0.5"/>
   </g>
   <g id="patch_97">
    <path d="M 311.248339 320.4 
L 314.162094 320.4 
L 314.162094 320.4 
L 311.248339 320.4 
z
" clip-path="url(#pae10fba4df)" style="fill: #6667ab; opacity: 0.5"/>
   </g>
   <g id="patch_98">
    <path d="M 314.162094 320.4 
L 317.075848 320.4 
L 317.075848 320.4 
L 314.162094 320.4 
z
" clip-path="url(#pae10fba4df)" style="fill: #6667ab; opacity: 0.5"/>
   </g>
   <g id="patch_99">
    <path d="M 317.075848 320.4 
L 319.989603 320.4 
L 319.989603 320.4 
L 317.075848 320.4 
z
" clip-path="url(#pae10fba4df)" style="fill: #6667ab; opacity: 0.5"/>
   </g>
   <g id="patch_100">
    <path d="M 319.989603 320.4 
L 322.903358 320.4 
L 322.903358 320.4 
L 319.989603 320.4 
z
" clip-path="url(#pae10fba4df)" style="fill: #6667ab; opacity: 0.5"/>
   </g>
   <g id="patch_101">
    <path d="M 322.903358 320.4 
L 325.817113 320.4 
L 325.817113 320.4 
L 322.903358 320.4 
z
" clip-path="url(#pae10fba4df)" style="fill: #6667ab; opacity: 0.5"/>
   </g>
   <g id="patch_102">
    <path d="M 325.817113 320.4 
L 328.730868 320.4 
L 328.730868 320.4 
L 325.817113 320.4 
z
" clip-path="url(#pae10fba4df)" style="fill: #6667ab; opacity: 0.5"/>
   </g>
   <g id="patch_103">
    <path d="M 328.730868 320.4 
L 331.644623 320.4 
L 331.644623 320.39435 
L 328.730868 320.39435 
z
" clip-path="url(#pae10fba4df)" style="fill: #6667ab; opacity: 0.5"/>
   </g>
   <g id="matplotlib.axis_1">
    <g id="xtick_1">
     <g id="line2d_1">
      <defs>
       <path id="m34641f51cf" d="M 0 0 
L 0 -3.5 
" style="stroke: #000000; stroke-width: 0.8"/>
      </defs>
      <g>
       <use xlink:href="#m34641f51cf" x="45" y="320.4" style="stroke: #000000; stroke-width: 0.8"/>
      </g>
     </g>
     <g id="text_1">
      <text style="font: 14px 'Helvetica', sans-serif; text-anchor: middle" x="45" y="336.442813" transform="rotate(-0 45 336.442813)">−0.15</text>
     </g>
    </g>
    <g id="xtick_2">
     <g id="line2d_2">
      <g>
       <use xlink:href="#m34641f51cf" x="91.5" y="320.4" style="stroke: #000000; stroke-width: 0.8"/>
      </g>
     </g>
     <g id="text_2">
      <text style="font: 14px 'Helvetica', sans-serif; text-anchor: middle" x="91.5" y="336.442813" transform="rotate(-0 91.5 336.442813)">−0.10</text>
     </g>
    </g>
    <g id="xtick_3">
     <g id="line2d_3">
      <g>
       <use xlink:href="#m34641f51cf" x="138" y="320.4" style="stroke: #000000; stroke-width: 0.8"/>
      </g>
     </g>
     <g id="text_3">
      <text style="font: 14px 'Helvetica', sans-serif; text-anchor: middle" x="138" y="336.442813" transform="rotate(-0 138 336.442813)">−0.05</text>
     </g>
    </g>
    <g id="xtick_4">
     <g id="line2d_4">
      <g>
       <use xlink:href="#m34641f51cf" x="184.5" y="320.4" style="stroke: #000000; stroke-width: 0.8"/>
      </g>
     </g>
     <g id="text_4">
      <text style="font: 14px 'Helvetica', sans-serif; text-anchor: middle" x="184.5" y="336.442813" transform="rotate(-0 184.5 336.442813)">0.00</text>
     </g>
    </g>
    <g id="xtick_5">
     <g id="line2d_5">
      <g>
       <use xlink:href="#m34641f51cf" x="231" y="320.4" style="stroke: #000000; stroke-width: 0.8"/>
      </g>
     </g>
     <g id="text_5">
      <text style="font: 14px 'Helvetica', sans-serif; text-anchor: middle" x="231" y="336.442813" transform="rotate(-0 231 336.442813)">0.05</text>
     </g>
    </g>
    <g id="xtick_6">
     <g id="line2d_6">
      <g>
       <use xlink:href="#m34641f51cf" x="277.5" y="320.4" style="stroke: #000000; stroke-width: 0.8"/>
      </g>
     </g>
     <g id="text_6">
      <text style="font: 14px 'Helvetica', sans-serif; text-anchor: middle" x="277.5" y="336.442813" transform="rotate(-0 277.5 336.442813)">0.10</text>
     </g>
    </g>
    <g id="xtick_7">
     <g id="line2d_7">
      <g>
       <use xlink:href="#m34641f51cf" x="324" y="320.4" style="stroke: #000000; stroke-width: 0.8"/>
      </g>
     </g>
     <g id="text_7">
      <text style="font: 14px 'Helvetica', sans-serif; text-anchor: middle" x="324" y="336.442813" transform="rotate(-0 324 336.442813)">0.15</text>
     </g>
    </g>
    <g id="text_8">
     <text style="font: 14px 'Helvetica', sans-serif; text-anchor: middle" x="184.5" y="355.436562" transform="rotate(-0 184.5 355.436562)">Measured minus expected</text>
    </g>
   </g>
   <g id="matplotlib.axis_2">
    <g id="ytick_1">
     <g id="line2d_8">
      <defs>
       <path id="mbc1b9c7abe" d="M 0 0 
L 3.5 0 
" style="stroke: #000000; stroke-width: 0.8"/>
      </defs>
      <g>
       <use xlink:href="#mbc1b9c7abe" x="45" y="320.4" style="stroke: #000000; stroke-width: 0.8"/>
      </g>
     </g>
     <g id="text_9">
      <text style="font: 14px 'Helvetica', sans-serif; text-anchor: end" x="39" y="325.421406" transform="rotate(-0 39 325.421406)">0.0</text>
     </g>
    </g>
    <g id="ytick_2">
     <g id="line2d_9">
      <g>
       <use xlink:href="#mbc1b9c7abe" x="45" y="270" style="stroke: #000000; stroke-width: 0.8"/>
      </g>
     </g>
     <g id="text_10">
      <text style="font: 14px 'Helvetica', sans-serif; text-anchor: end" x="39" y="275.021406" transform="rotate(-0 39 275.021406)">0.2</text>
     </g>
    </g>
    <g id="ytick_3">
     <g id="line2d_10">
      <g>
       <use xlink:href="#mbc1b9c7abe" x="45" y="219.6" style="stroke: #000000; stroke-width: 0.8"/>
      </g>
     </g>
     <g id="text_11">
      <text style="font: 14px 'Helvetica', sans-serif; text-anchor: end" x="39" y="224.621406" transform="rotate(-0 39 224.621406)">0.4</text>
     </g>
    </g>
    <g id="ytick_4">
     <g id="line2d_11">
      <g>
       <use xlink:href="#mbc1b9c7abe" x="45" y="169.2" style="stroke: #000000; stroke-width: 0.8"/>
      </g>
     </g>
     <g id="text_12">
      <text style="font: 14px 'Helvetica', sans-serif; text-anchor: end" x="39" y="174.221406" transform="rotate(-0 39 174.221406)">0.6</text>
     </g>
    </g>
    <g id="ytick_5">
     <g id="line2d_12">
      <g>
       <use xlink:href="#mbc1b9c7abe" x="45" y="118.8" style="stroke: #000000; stroke-width: 0.8"/>
      </g>
     </g>
     <g id="text_13">
      <text style="font: 14px 'Helvetica', sans-serif; text-anchor: end" x="39" y="123.821406" transform="rotate(-0 39 123.821406)">0.8</text>
     </g>
    </g>
    <g id="ytick_6">
     <g id="line2d_13">
      <g>
       <use xlink:href="#mbc1b9c7abe" x="45" y="68.4" style="stroke: #000000; stroke-width: 0.8"/>
      </g>
     </g>
     <g id="text_14">
      <text style="font: 14px 'Helvetica', sans-serif; text-anchor: end" x="39" y="73.421406" transform="rotate(-0 39 73.421406)">1.0</text>
     </g>
    </g>
    <g id="text_15">
     <text style="font: 14px 'Helvetica', sans-serif; text-anchor: middle" x="10.53875" y="181.8" transform="rotate(-90 10.53875 181.8)">Probability</text>
    </g>
   </g>
   <g id="patch_104">
    <path d="M 45 320.4 
L 45 43.2 
" style="fill: none; stroke: #000000; stroke-width: 0.8; stroke-linejoin: miter; stroke-linecap: square"/>
   </g>
   <g id="patch_105">
    <path d="M 324 320.4 
L 324 43.2 
" style="fill: none; stroke: #000000; stroke-width: 0.8; stroke-linejoin: miter; stroke-linecap: square"/>
   </g>
   <g id="patch_106">
    <path d="M 45 320.4 
L 324 320.4 
" style="fill: none; stroke: #000000; stroke-width: 0.8; stroke-linejoin: miter; stroke-linecap: square"/>
   </g>
   <g id="patch_107">
    <path d="M 45 43.2 
L 324 43.2 
" style="fill: none; stroke: #000000; stroke-width: 0.8; stroke-linejoin: miter; stroke-linecap: square"/>
   </g>
  </g>
 </g>
 <defs>
  <clipPath id="pae10fba4df">
   <rect x="45" y="43.2" width="279" height="277.2"/>
  </clipPath>
 </defs>
</svg>
