<?xml version="1.0" encoding="utf-8" standalone="no"?>
<!DOCTYPE svg PUBLIC "-//W3C//DTD SVG 1.1//EN"
  "http://www.w3.org/Graphics/SVG/1.1/DTD/svg11.dtd">
<svg xmlns:xlink="http://www.w3.org/1999/xlink" width="360pt" height="360pt" viewBox="0 0 360 360" xmlns="http://www.w3.org/2000/svg" version="1.1">
 <metadata>
  <rdf:RDF xmlns:dc="http://purl.org/dc/elements/1.1/" xmlns:cc="http://creativecommons.org/ns#" xmlns:rdf="http://www.w3.org/1999/02/22-rdf-syntax-ns#">
   <cc:Work>
    <dc:type rdf:resource="http://purl.org/dc/dcmitype/StillImage"/>
    <dc:date>2023-10-20T12:08:34.359595</dc:date>
    <dc:format>image/svg+xml</dc:format>
    <dc:creator>
     <cc:Agent>
      <dc:title>Matplotlib v3.7.2, https://matplotlib.org/</dc:title>
     </cc:Agent>
    </dc:creator>
   </cc:Work>
  </rdf:RDF>
 </metadata>
 <defs>
  <style type="text/css">*{stroke-linejoin: round; stroke-linecap: butt}</style>
 </defs>
 <g id="figure_1">
  <g id="patch_1">
   <path d="M 0 360 
L 360 360 
L 360 0 
L 0 0 
z
" style="fill: #ffffff"/>
  </g>
  <g id="axes_1">
   <g id="patch_2">
    <path d="M 45 320.4 
L 324 320.4 
L 324 43.2 
L 45 43.2 
z
" style="fill: #ffffff"/>
   </g>
   <g id="patch_3">
    <path d="M 58.326317 320.4 
L 60.881019 320.4 
L 60.881019 320.358566 
L 58.326317 320.358566 
z
" clip-path="url(#pab6ab88485)" style="fill: #6667ab; opacity: 0.5"/>
   </g>
   <g id="patch_4">
    <path d="M 60.881019 320.4 
L 63.43572 320.4 
L 63.43572 320.4 
L 60.881019 320.4 
z
" clip-path="url(#pab6ab88485)" style="fill: #6667ab; opacity: 0.5"/>
   </g>
   <g id="patch_5">
    <path d="M 63.43572 320.4 
L 65.990422 320.4 
L 65.990422 320.358566 
L 63.43572 320.358566 
z
" clip-path="url(#pab6ab88485)" style="fill: #6667ab; opacity: 0.5"/>
   </g>
   <g id="patch_6">
    <path d="M 65.990422 320.4 
L 68.545124 320.4 
L 68.545124 320.4 
L 65.990422 320.4 
z
" clip-path="url(#pab6ab88485)" style="fill: #6667ab; opacity: 0.5"/>
   </g>
   <g id="patch_7">
    <path d="M 68.545124 320.4 
L 71.099825 320.4 
L 71.099825 320.358566 
L 68.545124 320.358566 
z
" clip-path="url(#pab6ab88485)" style="fill: #6667ab; opacity: 0.5"/>
   </g>
   <g id="patch_8">
    <path d="M 71.099825 320.4 
L 73.654527 320.4 
L 73.654527 320.317131 
L 71.099825 320.317131 
z
" clip-path="url(#pab6ab88485)" style="fill: #6667ab; opacity: 0.5"/>
   </g>
   <g id="patch_9">
    <path d="M 73.654527 320.4 
L 76.209229 320.4 
L 76.209229 320.358566 
L 73.654527 320.358566 
z
" clip-path="url(#pab6ab88485)" style="fill: #6667ab; opacity: 0.5"/>
   </g>
   <g id="patch_10">
    <path d="M 76.209229 320.4 
L 78.76393 320.4 
L 78.76393 320.027091 
L 76.209229 320.027091 
z
" clip-path="url(#pab6ab88485)" style="fill: #6667ab; opacity: 0.5"/>
   </g>
   <g id="patch_11">
    <path d="M 78.76393 320.4 
L 81.318632 320.4 
L 81.318632 320.234263 
L 78.76393 320.234263 
z
" clip-path="url(#pab6ab88485)" style="fill: #6667ab; opacity: 0.5"/>
   </g>
   <g id="patch_12">
    <path d="M 81.318632 320.4 
L 83.873334 320.4 
L 83.873334 320.027091 
L 81.318632 320.027091 
z
" clip-path="url(#pab6ab88485)" style="fill: #6667ab; opacity: 0.5"/>
   </g>
   <g id="patch_13">
    <path d="M 83.873334 320.4 
L 86.428035 320.4 
L 86.428035 320.027091 
L 83.873334 320.027091 
z
" clip-path="url(#pab6ab88485)" style="fill: #6667ab; opacity: 0.5"/>
   </g>
   <g id="patch_14">
    <path d="M 86.428035 320.4 
L 88.982737 320.4 
L 88.982737 319.778485 
L 86.428035 319.778485 
z
" clip-path="url(#pab6ab88485)" style="fill: #6667ab; opacity: 0.5"/>
   </g>
   <g id="patch_15">
    <path d="M 88.982737 320.4 
L 91.537439 320.4 
L 91.537439 319.405575 
L 88.982737 319.405575 
z
" clip-path="url(#pab6ab88485)" style="fill: #6667ab; opacity: 0.5"/>
   </g>
   <g id="patch_16">
    <path d="M 91.537439 320.4 
L 94.09214 320.4 
L 94.09214 319.44701 
L 91.537439 319.44701 
z
" clip-path="url(#pab6ab88485)" style="fill: #6667ab; opacity: 0.5"/>
   </g>
   <g id="patch_17">
    <path d="M 94.09214 320.4 
L 96.646842 320.4 
L 96.646842 318.991232 
L 94.09214 318.991232 
z
" clip-path="url(#pab6ab88485)" style="fill: #6667ab; opacity: 0.5"/>
   </g>
   <g id="patch_18">
    <path d="M 96.646842 320.4 
L 99.201544 320.4 
L 99.201544 318.949797 
L 96.646842 318.949797 
z
" clip-path="url(#pab6ab88485)" style="fill: #6667ab; opacity: 0.5"/>
   </g>
   <g id="patch_19">
    <path d="M 99.201544 320.4 
L 101.756245 320.4 
L 101.756245 318.286848 
L 99.201544 318.286848 
z
" clip-path="url(#pab6ab88485)" style="fill: #6667ab; opacity: 0.5"/>
   </g>
   <g id="patch_20">
    <path d="M 101.756245 320.4 
L 104.310947 320.4 
L 104.310947 317.996807 
L 101.756245 317.996807 
z
" clip-path="url(#pab6ab88485)" style="fill: #6667ab; opacity: 0.5"/>
   </g>
   <g id="patch_21">
    <path d="M 104.310947 320.4 
L 106.865649 320.4 
L 106.865649 317.541029 
L 104.310947 317.541029 
z
" clip-path="url(#pab6ab88485)" style="fill: #6667ab; opacity: 0.5"/>
   </g>
   <g id="patch_22">
    <path d="M 106.865649 320.4 
L 109.42035 320.4 
L 109.42035 316.049392 
L 106.865649 316.049392 
z
" clip-path="url(#pab6ab88485)" style="fill: #6667ab; opacity: 0.5"/>
   </g>
   <g id="patch_23">
    <path d="M 109.42035 320.4 
L 111.975052 320.4 
L 111.975052 315.469311 
L 109.42035 315.469311 
z
" clip-path="url(#pab6ab88485)" style="fill: #6667ab; opacity: 0.5"/>
   </g>
   <g id="patch_24">
    <path d="M 111.975052 320.4 
L 114.529754 320.4 
L 114.529754 314.433452 
L 111.975052 314.433452 
z
" clip-path="url(#pab6ab88485)" style="fill: #6667ab; opacity: 0.5"/>
   </g>
   <g id="patch_25">
    <path d="M 114.529754 320.4 
L 117.084455 320.4 
L 117.084455 312.858947 
L 114.529754 312.858947 
z
" clip-path="url(#pab6ab88485)" style="fill: #6667ab; opacity: 0.5"/>
   </g>
   <g id="patch_26">
    <path d="M 117.084455 320.4 
L 119.639157 320.4 
L 119.639157 312.154563 
L 117.084455 312.154563 
z
" clip-path="url(#pab6ab88485)" style="fill: #6667ab; opacity: 0.5"/>
   </g>
   <g id="patch_27">
    <path d="M 119.639157 320.4 
L 122.193859 320.4 
L 122.193859 309.254158 
L 119.639157 309.254158 
z
" clip-path="url(#pab6ab88485)" style="fill: #6667ab; opacity: 0.5"/>
   </g>
   <g id="patch_28">
    <path d="M 122.193859 320.4 
L 124.74856 320.4 
L 124.74856 306.395187 
L 122.193859 306.395187 
z
" clip-path="url(#pab6ab88485)" style="fill: #6667ab; opacity: 0.5"/>
   </g>
   <g id="patch_29">
    <path d="M 124.74856 320.4 
L 127.303262 320.4 
L 127.303262 303.743388 
L 124.74856 303.743388 
z
" clip-path="url(#pab6ab88485)" style="fill: #6667ab; opacity: 0.5"/>
   </g>
   <g id="patch_30">
    <path d="M 127.303262 320.4 
L 129.857964 320.4 
L 129.857964 302.086014 
L 127.303262 302.086014 
z
" clip-path="url(#pab6ab88485)" style="fill: #6667ab; opacity: 0.5"/>
   </g>
   <g id="patch_31">
    <path d="M 129.857964 320.4 
L 132.412665 320.4 
L 132.412665 296.036597 
L 129.857964 296.036597 
z
" clip-path="url(#pab6ab88485)" style="fill: #6667ab; opacity: 0.5"/>
   </g>
   <g id="patch_32">
    <path d="M 132.412665 320.4 
L 134.967367 320.4 
L 134.967367 293.177627 
L 132.412665 293.177627 
z
" clip-path="url(#pab6ab88485)" style="fill: #6667ab; opacity: 0.5"/>
   </g>
   <g id="patch_33">
    <path d="M 134.967367 320.4 
L 137.522069 320.4 
L 137.522069 286.879604 
L 134.967367 286.879604 
z
" clip-path="url(#pab6ab88485)" style="fill: #6667ab; opacity: 0.5"/>
   </g>
   <g id="patch_34">
    <path d="M 137.522069 320.4 
L 140.07677 320.4 
L 140.07677 281.617441 
L 137.522069 281.617441 
z
" clip-path="url(#pab6ab88485)" style="fill: #6667ab; opacity: 0.5"/>
   </g>
   <g id="patch_35">
    <path d="M 140.07677 320.4 
L 142.631472 320.4 
L 142.631472 274.86364 
L 140.07677 274.86364 
z
" clip-path="url(#pab6ab88485)" style="fill: #6667ab; opacity: 0.5"/>
   </g>
   <g id="patch_36">
    <path d="M 142.631472 320.4 
L 145.186174 320.4 
L 145.186174 266.369597 
L 142.631472 266.369597 
z
" clip-path="url(#pab6ab88485)" style="fill: #6667ab; opacity: 0.5"/>
   </g>
   <g id="patch_37">
    <path d="M 145.186174 320.4 
L 147.740875 320.4 
L 147.740875 259.822968 
L 145.186174 259.822968 
z
" clip-path="url(#pab6ab88485)" style="fill: #6667ab; opacity: 0.5"/>
   </g>
   <g id="patch_38">
    <path d="M 147.740875 320.4 
L 150.295577 320.4 
L 150.295577 248.221348 
L 147.740875 248.221348 
z
" clip-path="url(#pab6ab88485)" style="fill: #6667ab; opacity: 0.5"/>
   </g>
   <g id="patch_39">
    <path d="M 150.295577 320.4 
L 152.850279 320.4 
L 152.850279 234.796616 
L 150.295577 234.796616 
z
" clip-path="url(#pab6ab88485)" style="fill: #6667ab; opacity: 0.5"/>
   </g>
   <g id="patch_40">
    <path d="M 152.850279 320.4 
L 155.40498 320.4 
L 155.40498 224.935239 
L 152.850279 224.935239 
z
" clip-path="url(#pab6ab88485)" style="fill: #6667ab; opacity: 0.5"/>
   </g>
   <g id="patch_41">
    <path d="M 155.40498 320.4 
L 157.959682 320.4 
L 157.959682 210.888991 
L 155.40498 210.888991 
z
" clip-path="url(#pab6ab88485)" style="fill: #6667ab; opacity: 0.5"/>
   </g>
   <g id="patch_42">
    <path d="M 157.959682 320.4 
L 160.514384 320.4 
L 160.514384 200.779008 
L 157.959682 200.779008 
z
" clip-path="url(#pab6ab88485)" style="fill: #6667ab; opacity: 0.5"/>
   </g>
   <g id="patch_43">
    <path d="M 160.514384 320.4 
L 163.069085 320.4 
L 163.069085 180.310435 
L 160.514384 180.310435 
z
" clip-path="url(#pab6ab88485)" style="fill: #6667ab; opacity: 0.5"/>
   </g>
   <g id="patch_44">
    <path d="M 163.069085 320.4 
L 165.623787 320.4 
L 165.623787 167.465784 
L 163.069085 167.465784 
z
" clip-path="url(#pab6ab88485)" style="fill: #6667ab; opacity: 0.5"/>
   </g>
   <g id="patch_45">
    <path d="M 165.623787 320.4 
L 168.178489 320.4 
L 168.178489 155.491254 
L 165.623787 155.491254 
z
" clip-path="url(#pab6ab88485)" style="fill: #6667ab; opacity: 0.5"/>
   </g>
   <g id="patch_46">
    <path d="M 168.178489 320.4 
L 170.73319 320.4 
L 170.73319 133.738216 
L 168.178489 133.738216 
z
" clip-path="url(#pab6ab88485)" style="fill: #6667ab; opacity: 0.5"/>
   </g>
   <g id="patch_47">
    <path d="M 170.73319 320.4 
L 173.287892 320.4 
L 173.287892 115.134189 
L 170.73319 115.134189 
z
" clip-path="url(#pab6ab88485)" style="fill: #6667ab; opacity: 0.5"/>
   </g>
   <g id="patch_48">
    <path d="M 173.287892 320.4 
L 175.842594 320.4 
L 175.842594 107.800308 
L 173.287892 107.800308 
z
" clip-path="url(#pab6ab88485)" style="fill: #6667ab; opacity: 0.5"/>
   </g>
   <g id="patch_49">
    <path d="M 175.842594 320.4 
L 178.397295 320.4 
L 178.397295 89.486322 
L 175.842594 89.486322 
z
" clip-path="url(#pab6ab88485)" style="fill: #6667ab; opacity: 0.5"/>
   </g>
   <g id="patch_50">
    <path d="M 178.397295 320.4 
L 180.951997 320.4 
L 180.951997 79.459207 
L 178.397295 79.459207 
z
" clip-path="url(#pab6ab88485)" style="fill: #6667ab; opacity: 0.5"/>
   </g>
   <g id="patch_51">
    <path d="M 180.951997 320.4 
L 183.506699 320.4 
L 183.506699 61.973908 
L 180.951997 61.973908 
z
" clip-path="url(#pab6ab88485)" style="fill: #6667ab; opacity: 0.5"/>
   </g>
   <g id="patch_52">
    <path d="M 183.506699 320.4 
L 186.061401 320.4 
L 186.061401 52.77548 
L 183.506699 52.77548 
z
" clip-path="url(#pab6ab88485)" style="fill: #6667ab; opacity: 0.5"/>
   </g>
   <g id="patch_53">
    <path d="M 186.061401 320.4 
L 188.616102 320.4 
L 188.616102 65.99304 
L 186.061401 65.99304 
z
" clip-path="url(#pab6ab88485)" style="fill: #6667ab; opacity: 0.5"/>
   </g>
   <g id="patch_54">
    <path d="M 188.616102 320.4 
L 191.170804 320.4 
L 191.170804 79.624944 
L 188.616102 79.624944 
z
" clip-path="url(#pab6ab88485)" style="fill: #6667ab; opacity: 0.5"/>
   </g>
   <g id="patch_55">
    <path d="M 191.170804 320.4 
L 193.725506 320.4 
L 193.725506 91.516605 
L 191.170804 91.516605 
z
" clip-path="url(#pab6ab88485)" style="fill: #6667ab; opacity: 0.5"/>
   </g>
   <g id="patch_56">
    <path d="M 193.725506 320.4 
L 196.280207 320.4 
L 196.280207 102.082366 
L 193.725506 102.082366 
z
" clip-path="url(#pab6ab88485)" style="fill: #6667ab; opacity: 0.5"/>
   </g>
   <g id="patch_57">
    <path d="M 196.280207 320.4 
L 198.834909 320.4 
L 198.834909 121.266474 
L 196.280207 121.266474 
z
" clip-path="url(#pab6ab88485)" style="fill: #6667ab; opacity: 0.5"/>
   </g>
   <g id="patch_58">
    <path d="M 198.834909 320.4 
L 201.389611 320.4 
L 201.389611 140.24341 
L 198.834909 140.24341 
z
" clip-path="url(#pab6ab88485)" style="fill: #6667ab; opacity: 0.5"/>
   </g>
   <g id="patch_59">
    <path d="M 201.389611 320.4 
L 203.944312 320.4 
L 203.944312 155.491254 
L 201.389611 155.491254 
z
" clip-path="url(#pab6ab88485)" style="fill: #6667ab; opacity: 0.5"/>
   </g>
   <g id="patch_60">
    <path d="M 203.944312 320.4 
L 206.499014 320.4 
L 206.499014 171.857826 
L 203.944312 171.857826 
z
" clip-path="url(#pab6ab88485)" style="fill: #6667ab; opacity: 0.5"/>
   </g>
   <g id="patch_61">
    <path d="M 206.499014 320.4 
L 209.053716 320.4 
L 209.053716 185.738336 
L 206.499014 185.738336 
z
" clip-path="url(#pab6ab88485)" style="fill: #6667ab; opacity: 0.5"/>
   </g>
   <g id="patch_62">
    <path d="M 209.053716 320.4 
L 211.608417 320.4 
L 211.608417 201.027614 
L 209.053716 201.027614 
z
" clip-path="url(#pab6ab88485)" style="fill: #6667ab; opacity: 0.5"/>
   </g>
   <g id="patch_63">
    <path d="M 211.608417 320.4 
L 214.163119 320.4 
L 214.163119 214.079437 
L 211.608417 214.079437 
z
" clip-path="url(#pab6ab88485)" style="fill: #6667ab; opacity: 0.5"/>
   </g>
   <g id="patch_64">
    <path d="M 214.163119 320.4 
L 216.717821 320.4 
L 216.717821 227.006957 
L 214.163119 227.006957 
z
" clip-path="url(#pab6ab88485)" style="fill: #6667ab; opacity: 0.5"/>
   </g>
   <g id="patch_65">
    <path d="M 216.717821 320.4 
L 219.272522 320.4 
L 219.272522 239.105789 
L 216.717821 239.105789 
z
" clip-path="url(#pab6ab88485)" style="fill: #6667ab; opacity: 0.5"/>
   </g>
   <g id="patch_66">
    <path d="M 219.272522 320.4 
L 221.827224 320.4 
L 221.827224 250.251632 
L 219.272522 250.251632 
z
" clip-path="url(#pab6ab88485)" style="fill: #6667ab; opacity: 0.5"/>
   </g>
   <g id="patch_67">
    <path d="M 221.827224 320.4 
L 224.381926 320.4 
L 224.381926 259.284322 
L 221.827224 259.284322 
z
" clip-path="url(#pab6ab88485)" style="fill: #6667ab; opacity: 0.5"/>
   </g>
   <g id="patch_68">
    <path d="M 224.381926 320.4 
L 226.936627 320.4 
L 226.936627 265.582344 
L 224.381926 265.582344 
z
" clip-path="url(#pab6ab88485)" style="fill: #6667ab; opacity: 0.5"/>
   </g>
   <g id="patch_69">
    <path d="M 226.936627 320.4 
L 229.491329 320.4 
L 229.491329 275.982368 
L 226.936627 275.982368 
z
" clip-path="url(#pab6ab88485)" style="fill: #6667ab; opacity: 0.5"/>
   </g>
   <g id="patch_70">
    <path d="M 229.491329 320.4 
L 232.046031 320.4 
L 232.046031 282.777603 
L 229.491329 282.777603 
z
" clip-path="url(#pab6ab88485)" style="fill: #6667ab; opacity: 0.5"/>
   </g>
   <g id="patch_71">
    <path d="M 232.046031 320.4 
L 234.600732 320.4 
L 234.600732 288.45411 
L 232.046031 288.45411 
z
" clip-path="url(#pab6ab88485)" style="fill: #6667ab; opacity: 0.5"/>
   </g>
   <g id="patch_72">
    <path d="M 234.600732 320.4 
L 237.155434 320.4 
L 237.155434 294.420657 
L 234.600732 294.420657 
z
" clip-path="url(#pab6ab88485)" style="fill: #6667ab; opacity: 0.5"/>
   </g>
   <g id="patch_73">
    <path d="M 237.155434 320.4 
L 239.710136 320.4 
L 239.710136 300.884417 
L 237.155434 300.884417 
z
" clip-path="url(#pab6ab88485)" style="fill: #6667ab; opacity: 0.5"/>
   </g>
   <g id="patch_74">
    <path d="M 239.710136 320.4 
L 242.264837 320.4 
L 242.264837 303.411913 
L 239.710136 303.411913 
z
" clip-path="url(#pab6ab88485)" style="fill: #6667ab; opacity: 0.5"/>
   </g>
   <g id="patch_75">
    <path d="M 242.264837 320.4 
L 244.819539 320.4 
L 244.819539 305.483631 
L 242.264837 305.483631 
z
" clip-path="url(#pab6ab88485)" style="fill: #6667ab; opacity: 0.5"/>
   </g>
   <g id="patch_76">
    <path d="M 244.819539 320.4 
L 247.374241 320.4 
L 247.374241 308.922683 
L 244.819539 308.922683 
z
" clip-path="url(#pab6ab88485)" style="fill: #6667ab; opacity: 0.5"/>
   </g>
   <g id="patch_77">
    <path d="M 247.374241 320.4 
L 249.928942 320.4 
L 249.928942 310.082845 
L 247.374241 310.082845 
z
" clip-path="url(#pab6ab88485)" style="fill: #6667ab; opacity: 0.5"/>
   </g>
   <g id="patch_78">
    <path d="M 249.928942 320.4 
L 252.483644 320.4 
L 252.483644 312.568906 
L 249.928942 312.568906 
z
" clip-path="url(#pab6ab88485)" style="fill: #6667ab; opacity: 0.5"/>
   </g>
   <g id="patch_79">
    <path d="M 252.483644 320.4 
L 255.038346 320.4 
L 255.038346 313.853371 
L 252.483644 313.853371 
z
" clip-path="url(#pab6ab88485)" style="fill: #6667ab; opacity: 0.5"/>
   </g>
   <g id="patch_80">
    <path d="M 255.038346 320.4 
L 257.593047 320.4 
L 257.593047 314.682059 
L 255.038346 314.682059 
z
" clip-path="url(#pab6ab88485)" style="fill: #6667ab; opacity: 0.5"/>
   </g>
   <g id="patch_81">
    <path d="M 257.593047 320.4 
L 260.147749 320.4 
L 260.147749 315.676483 
L 257.593047 315.676483 
z
" clip-path="url(#pab6ab88485)" style="fill: #6667ab; opacity: 0.5"/>
   </g>
   <g id="patch_82">
    <path d="M 260.147749 320.4 
L 262.702451 320.4 
L 262.702451 317.085251 
L 260.147749 317.085251 
z
" clip-path="url(#pab6ab88485)" style="fill: #6667ab; opacity: 0.5"/>
   </g>
   <g id="patch_83">
    <path d="M 262.702451 320.4 
L 265.257152 320.4 
L 265.257152 317.541029 
L 262.702451 317.541029 
z
" clip-path="url(#pab6ab88485)" style="fill: #6667ab; opacity: 0.5"/>
   </g>
   <g id="patch_84">
    <path d="M 265.257152 320.4 
L 267.811854 320.4 
L 267.811854 317.872504 
L 265.257152 317.872504 
z
" clip-path="url(#pab6ab88485)" style="fill: #6667ab; opacity: 0.5"/>
   </g>
   <g id="patch_85">
    <path d="M 267.811854 320.4 
L 270.366556 320.4 
L 270.366556 318.535454 
L 267.811854 318.535454 
z
" clip-path="url(#pab6ab88485)" style="fill: #6667ab; opacity: 0.5"/>
   </g>
   <g id="patch_86">
    <path d="M 270.366556 320.4 
L 272.921257 320.4 
L 272.921257 319.074101 
L 270.366556 319.074101 
z
" clip-path="url(#pab6ab88485)" style="fill: #6667ab; opacity: 0.5"/>
   </g>
   <g id="patch_87">
    <path d="M 272.921257 320.4 
L 275.475959 320.4 
L 275.475959 319.074101 
L 272.921257 319.074101 
z
" clip-path="url(#pab6ab88485)" style="fill: #6667ab; opacity: 0.5"/>
   </g>
   <g id="patch_88">
    <path d="M 275.475959 320.4 
L 278.030661 320.4 
L 278.030661 319.405575 
L 275.475959 319.405575 
z
" clip-path="url(#pab6ab88485)" style="fill: #6667ab; opacity: 0.5"/>
   </g>
   <g id="patch_89">
    <path d="M 278.030661 320.4 
L 280.585362 320.4 
L 280.585362 319.571313 
L 278.030661 319.571313 
z
" clip-path="url(#pab6ab88485)" style="fill: #6667ab; opacity: 0.5"/>
   </g>
   <g id="patch_90">
    <path d="M 280.585362 320.4 
L 283.140064 320.4 
L 283.140064 319.819919 
L 280.585362 319.819919 
z
" clip-path="url(#pab6ab88485)" style="fill: #6667ab; opacity: 0.5"/>
   </g>
   <g id="patch_91">
    <path d="M 283.140064 320.4 
L 285.694766 320.4 
L 285.694766 320.027091 
L 283.140064 320.027091 
z
" clip-path="url(#pab6ab88485)" style="fill: #6667ab; opacity: 0.5"/>
   </g>
   <g id="patch_92">
    <path d="M 285.694766 320.4 
L 288.249467 320.4 
L 288.249467 319.985656 
L 285.694766 319.985656 
z
" clip-path="url(#pab6ab88485)" style="fill: #6667ab; opacity: 0.5"/>
   </g>
   <g id="patch_93">
    <path d="M 288.249467 320.4 
L 290.804169 320.4 
L 290.804169 320.275697 
L 288.249467 320.275697 
z
" clip-path="url(#pab6ab88485)" style="fill: #6667ab; opacity: 0.5"/>
   </g>
   <g id="patch_94">
    <path d="M 290.804169 320.4 
L 293.358871 320.4 
L 293.358871 320.234263 
L 290.804169 320.234263 
z
" clip-path="url(#pab6ab88485)" style="fill: #6667ab; opacity: 0.5"/>
   </g>
   <g id="patch_95">
    <path d="M 293.358871 320.4 
L 295.913572 320.4 
L 295.913572 320.275697 
L 293.358871 320.275697 
z
" clip-path="url(#pab6ab88485)" style="fill: #6667ab; opacity: 0.5"/>
   </g>
   <g id="patch_96">
    <path d="M 295.913572 320.4 
L 298.468274 320.4 
L 298.468274 320.151394 
L 295.913572 320.151394 
z
" clip-path="url(#pab6ab88485)" style="fill: #6667ab; opacity: 0.5"/>
   </g>
   <g id="patch_97">
    <path d="M 298.468274 320.4 
L 301.022976 320.4 
L 301.022976 320.358566 
L 298.468274 320.358566 
z
" clip-path="url(#pab6ab88485)" style="fill: #6667ab; opacity: 0.5"/>
   </g>
   <g id="patch_98">
    <path d="M 301.022976 320.4 
L 303.577677 320.4 
L 303.577677 320.275697 
L 301.022976 320.275697 
z
" clip-path="url(#pab6ab88485)" style="fill: #6667ab; opacity: 0.5"/>
   </g>
   <g id="patch_99">
    <path d="M 303.577677 320.4 
L 306.132379 320.4 
L 306.132379 320.358566 
L 303.577677 320.358566 
z
" clip-path="url(#pab6ab88485)" style="fill: #6667ab; opacity: 0.5"/>
   </g>
   <g id="patch_100">
    <path d="M 306.132379 320.4 
L 308.687081 320.4 
L 308.687081 320.358566 
L 306.132379 320.358566 
z
" clip-path="url(#pab6ab88485)" style="fill: #6667ab; opacity: 0.5"/>
   </g>
   <g id="patch_101">
    <path d="M 308.687081 320.4 
L 311.241782 320.4 
L 311.241782 320.358566 
L 308.687081 320.358566 
z
" clip-path="url(#pab6ab88485)" style="fill: #6667ab; opacity: 0.5"/>
   </g>
   <g id="patch_102">
    <path d="M 311.241782 320.4 
L 313.796484 320.4 
L 313.796484 320.4 
L 311.241782 320.4 
z
" clip-path="url(#pab6ab88485)" style="fill: #6667ab; opacity: 0.5"/>
   </g>
   <g id="patch_103">
    <path d="M 313.796484 320.4 
L 316.351186 320.4 
L 316.351186 320.275697 
L 313.796484 320.275697 
z
" clip-path="url(#pab6ab88485)" style="fill: #6667ab; opacity: 0.5"/>
   </g>
   <g id="matplotlib.axis_1">
    <g id="xtick_1">
     <g id="line2d_1">
      <defs>
       <path id="m16af5076c2" d="M 0 0 
L 0 -3.5 
" style="stroke: #000000; stroke-width: 0.8"/>
      </defs>
      <g>
       <use xlink:href="#m16af5076c2" x="45" y="320.4" style="stroke: #000000; stroke-width: 0.8"/>
      </g>
     </g>
     <g id="text_1">
      <text style="font: 14px 'Helvetica', sans-serif; text-anchor: middle" x="45" y="336.442813" transform="rotate(-0 45 336.442813)">−0.15</text>
     </g>
    </g>
    <g id="xtick_2">
     <g id="line2d_2">
      <g>
       <use xlink:href="#m16af5076c2" x="91.5" y="320.4" style="stroke: #000000; stroke-width: 0.8"/>
      </g>
     </g>
     <g id="text_2">
      <text style="font: 14px 'Helvetica', sans-serif; text-anchor: middle" x="91.5" y="336.442813" transform="rotate(-0 91.5 336.442813)">−0.10</text>
     </g>
    </g>
    <g id="xtick_3">
     <g id="line2d_3">
      <g>
       <use xlink:href="#m16af5076c2" x="138" y="320.4" style="stroke: #000000; stroke-width: 0.8"/>
      </g>
     </g>
     <g id="text_3">
      <text style="font: 14px 'Helvetica', sans-serif; text-anchor: middle" x="138" y="336.442813" transform="rotate(-0 138 336.442813)">−0.05</text>
     </g>
    </g>
    <g id="xtick_4">
     <g id="line2d_4">
      <g>
       <use xlink:href="#m16af5076c2" x="184.5" y="320.4" style="stroke: #000000; stroke-width: 0.8"/>
      </g>
     </g>
     <g id="text_4">
      <text style="font: 14px 'Helvetica', sans-serif; text-anchor: middle" x="184.5" y="336.442813" transform="rotate(-0 184.5 336.442813)">0.00</text>
     </g>
    </g>
    <g id="xtick_5">
     <g id="line2d_5">
      <g>
       <use xlink:href="#m16af5076c2" x="231" y="320.4" style="stroke: #000000; stroke-width: 0.8"/>
      </g>
     </g>
     <g id="text_5">
      <text style="font: 14px 'Helvetica', sans-serif; text-anchor: middle" x="231" y="336.442813" transform="rotate(-0 231 336.442813)">0.05</text>
     </g>
    </g>
    <g id="xtick_6">
     <g id="line2d_6">
      <g>
       <use xlink:href="#m16af5076c2" x="277.5" y="320.4" style="stroke: #000000; stroke-width: 0.8"/>
      </g>
     </g>
     <g id="text_6">
      <text style="font: 14px 'Helvetica', sans-serif; text-anchor: middle" x="277.5" y="336.442813" transform="rotate(-0 277.5 336.442813)">0.10</text>
     </g>
    </g>
    <g id="xtick_7">
     <g id="line2d_7">
      <g>
       <use xlink:href="#m16af5076c2" x="324" y="320.4" style="stroke: #000000; stroke-width: 0.8"/>
      </g>
     </g>
     <g id="text_7">
      <text style="font: 14px 'Helvetica', sans-serif; text-anchor: middle" x="324" y="336.442813" transform="rotate(-0 324 336.442813)">0.15</text>
     </g>
    </g>
    <g id="text_8">
     <text style="font: 14px 'Helvetica', sans-serif; text-anchor: middle" x="184.5" y="355.436562" transform="rotate(-0 184.5 355.436562)">Measured minus expected</text>
    </g>
   </g>
   <g id="matplotlib.axis_2">
    <g id="ytick_1">
     <g id="line2d_8">
      <defs>
       <path id="mfef080b73a" d="M 0 0 
L 3.5 0 
" style="stroke: #000000; stroke-width: 0.8"/>
      </defs>
      <g>
       <use xlink:href="#mfef080b73a" x="45" y="320.4" style="stroke: #000000; stroke-width: 0.8"/>
      </g>
     </g>
     <g id="text_9">
      <text style="font: 14px 'Helvetica', sans-serif; text-anchor: end" x="39" y="325.421406" transform="rotate(-0 39 325.421406)">0.00</text>
     </g>
    </g>
    <g id="ytick_2">
     <g id="line2d_9">
      <g>
       <use xlink:href="#mfef080b73a" x="45" y="264.96" style="stroke: #000000; stroke-width: 0.8"/>
      </g>
     </g>
     <g id="text_10">
      <text style="font: 14px 'Helvetica', sans-serif; text-anchor: end" x="39" y="269.981406" transform="rotate(-0 39 269.981406)">0.01</text>
     </g>
    </g>
    <g id="ytick_3">
     <g id="line2d_10">
      <g>
       <use xlink:href="#mfef080b73a" x="45" y="209.52" style="stroke: #000000; stroke-width: 0.8"/>
      </g>
     </g>
     <g id="text_11">
      <text style="font: 14px 'Helvetica', sans-serif; text-anchor: end" x="39" y="214.541406" transform="rotate(-0 39 214.541406)">0.02</text>
     </g>
    </g>
    <g id="ytick_4">
     <g id="line2d_11">
      <g>
       <use xlink:href="#mfef080b73a" x="45" y="154.08" style="stroke: #000000; stroke-width: 0.8"/>
      </g>
     </g>
     <g id="text_12">
      <text style="font: 14px 'Helvetica', sans-serif; text-anchor: end" x="39" y="159.101406" transform="rotate(-0 39 159.101406)">0.03</text>
     </g>
    </g>
    <g id="ytick_5">
     <g id="line2d_12">
      <g>
       <use xlink:href="#mfef080b73a" x="45" y="98.64" style="stroke: #000000; stroke-width: 0.8"/>
      </g>
     </g>
     <g id="text_13">
      <text style="font: 14px 'Helvetica', sans-serif; text-anchor: end" x="39" y="103.661406" transform="rotate(-0 39 103.661406)">0.04</text>
     </g>
    </g>
    <g id="ytick_6">
     <g id="line2d_13">
      <g>
       <use xlink:href="#mfef080b73a" x="45" y="43.2" style="stroke: #000000; stroke-width: 0.8"/>
      </g>
     </g>
     <g id="text_14">
      <text style="font: 14px 'Helvetica', sans-serif; text-anchor: end" x="39" y="48.221406" transform="rotate(-0 39 48.221406)">0.05</text>
     </g>
    </g>
    <g id="text_15">
     <text style="font: 14px 'Helvetica', sans-serif; text-anchor: middle" x="2.753437" y="181.8" transform="rotate(-90 2.753437 181.8)">Probability</text>
    </g>
   </g>
   <g id="line2d_14">
    <path d="M 58.326317 320.399181 
L 60.932629 320.398632 
L 63.538941 320.397739 
L 66.145252 320.396305 
L 68.751564 320.394024 
L 71.357876 320.390437 
L 73.964188 320.384862 
L 76.5705 320.376291 
L 79.176811 320.363264 
L 81.783123 320.343684 
L 84.389435 320.314588 
L 86.995747 320.27184 
L 89.602059 320.209744 
L 92.20837 320.120569 
L 94.814682 319.99397 
L 97.420994 319.816296 
L 100.027306 319.569811 
L 102.633618 319.231819 
L 105.239929 318.773728 
L 107.846241 318.160115 
L 110.452553 317.347837 
L 113.058865 316.285289 
L 115.665177 314.91192 
L 118.271488 313.158122 
L 120.8778 310.945655 
L 123.484112 308.188718 
L 126.090424 304.795832 
L 128.696736 300.672614 
L 131.303048 295.72552 
L 133.909359 289.866539 
L 136.515671 283.018769 
L 139.121983 275.12268 
L 141.728295 266.142799 
L 144.334607 256.074435 
L 146.940918 244.949977 
L 149.54723 232.844244 
L 152.153542 219.878358 
L 154.759854 206.221588 
L 157.366166 192.090748 
L 159.972477 177.746807 
L 162.578789 163.488573 
L 165.185101 149.643517 
L 167.791413 136.556035 
L 170.397725 124.57366 
L 173.004036 114.031986 
L 175.610348 105.239168 
L 178.21666 98.461015 
L 180.822972 93.907656 
L 183.429284 91.722725 
L 186.035595 91.975837 
L 188.641907 94.658906 
L 191.248219 99.68657 
L 193.854531 106.900705 
L 196.460843 116.078683 
L 199.067154 126.944774 
L 201.673466 139.18389 
L 204.279778 152.456696 
L 206.88609 166.415102 
L 209.492402 180.717139 
L 212.098714 195.040382 
L 214.705025 209.093186 
L 217.311337 222.623296 
L 219.917649 235.42355 
L 222.523961 247.334673 
L 225.130273 258.24535 
L 227.736584 268.08991 
L 230.342896 276.844113 
L 232.949208 284.519556 
L 235.55552 291.157244 
L 238.161832 296.820839 
L 240.768143 301.590036 
L 243.374455 305.554422 
L 245.980767 308.808069 
L 248.587079 311.445032 
L 251.193391 313.555813 
L 253.799702 315.224775 
L 256.406014 316.528439 
L 259.012326 317.534552 
L 261.618638 318.301792 
L 264.22495 318.879963 
L 266.831261 319.310545 
L 269.437573 319.627473 
L 272.043885 319.858039 
L 274.650197 320.023841 
L 277.256509 320.1417 
L 279.86282 320.22452 
L 282.469132 320.282055 
L 285.075444 320.32157 
L 287.681756 320.348402 
L 290.288068 320.366416 
L 292.89438 320.378374 
L 295.500691 320.386222 
L 298.107003 320.391316 
L 300.713315 320.394585 
L 303.319627 320.396659 
L 305.925939 320.397961 
L 308.53225 320.398769 
L 311.138562 320.399264 
L 313.744874 320.399565 
L 316.351186 320.399746 
" clip-path="url(#pab6ab88485)" style="fill: none; stroke: #884c5e; stroke-width: 2; stroke-linecap: square"/>
   </g>
   <g id="patch_104">
    <path d="M 45 320.4 
L 45 43.2 
" style="fill: none; stroke: #000000; stroke-width: 0.8; stroke-linejoin: miter; stroke-linecap: square"/>
   </g>
   <g id="patch_105">
    <path d="M 324 320.4 
L 324 43.2 
" style="fill: none; stroke: #000000; stroke-width: 0.8; stroke-linejoin: miter; stroke-linecap: square"/>
   </g>
   <g id="patch_106">
    <path d="M 45 320.4 
L 324 320.4 
" style="fill: none; stroke: #000000; stroke-width: 0.8; stroke-linejoin: miter; stroke-linecap: square"/>
   </g>
   <g id="patch_107">
    <path d="M 45 43.2 
L 324 43.2 
" style="fill: none; stroke: #000000; stroke-width: 0.8; stroke-linejoin: miter; stroke-linecap: square"/>
   </g>
  </g>
 </g>
 <defs>
  <clipPath id="pab6ab88485">
   <rect x="45" y="43.2" width="279" height="277.2"/>
  </clipPath>
 </defs>
</svg>
